<svg width="527" height="381" viewBox="0 0 527 381" fill="none" xmlns="http://www.w3.org/2000/svg">
<g id="boy">
<path id="Vector" d="M396.373 32.9398H118.954V51.6128H396.373V32.9398Z" fill="url(#paint0_linear)"/>
<path id="Vector_2" d="M394.069 34.3762H120.336V48.7401H394.069V34.3762Z" fill="#6C63FF"/>
<path id="Vector_3" opacity="0.2" d="M431.866 15H95V365H431.866V15Z" fill="#6C63FF"/>
<path id="Vector_4" opacity="0.5" d="M380.714 47.6779H145.691V332.801H380.714V47.6779Z" fill="#6C63FF"/>
<path id="Vector_5" d="M401.913 323.824H124.032V342.018H401.913V323.824Z" fill="url(#paint1_linear)"/>
<path id="Vector_6" d="M400.069 325.739H126.336V340.103H400.069V325.739Z" fill="#6C63FF"/>
<path id="Vector_7" opacity="0.5" d="M330.945 69.104H196.382V311.375H330.945V69.104Z" fill="#263238"/>
<path id="Vector_8" d="M263.664 253.694C285.312 253.694 302.862 235.46 302.862 212.968C302.862 190.475 285.312 172.241 263.664 172.241C242.015 172.241 224.465 190.475 224.465 212.968C224.465 235.46 242.015 253.694 263.664 253.694Z" fill="#263238"/>
<path id="Vector_9" d="M263.664 257.692C284.04 257.692 300.558 240.53 300.558 219.36C300.558 198.189 284.04 181.027 263.664 181.027C243.288 181.027 226.77 198.189 226.77 219.36C226.77 240.53 243.288 257.692 263.664 257.692Z" fill="#F8C198"/>
<path id="Vector_10" d="M249.06 215.764C251.608 215.764 253.673 213.618 253.673 210.971C253.673 208.324 251.608 206.179 249.06 206.179C246.512 206.179 244.447 208.324 244.447 210.971C244.447 213.618 246.512 215.764 249.06 215.764Z" fill="#263238"/>
<path id="Vector_11" d="M279.037 215.764C281.585 215.764 283.65 213.618 283.65 210.971C283.65 208.324 281.585 206.179 279.037 206.179C276.489 206.179 274.424 208.324 274.424 210.971C274.424 213.618 276.489 215.764 279.037 215.764Z" fill="#263238"/>
<path id="Vector_12" d="M274.424 236.922C274.424 239.795 269.608 244.511 263.664 244.511C257.719 244.511 252.903 239.795 252.903 236.922C252.903 234.049 257.719 234.126 263.664 234.126C269.608 234.126 274.424 234.049 274.424 236.922Z" fill="white"/>
<path id="Vector_13" d="M250.212 212.57C251.062 212.57 251.751 211.854 251.751 210.971C251.751 210.088 251.062 209.372 250.212 209.372C249.362 209.372 248.673 210.088 248.673 210.971C248.673 211.854 249.362 212.57 250.212 212.57Z" fill="white"/>
<path id="Vector_14" d="M280.571 212.57C281.422 212.57 282.111 211.854 282.111 210.971C282.111 210.088 281.422 209.372 280.571 209.372C279.721 209.372 279.032 210.088 279.032 210.971C279.032 211.854 279.721 212.57 280.571 212.57Z" fill="white"/>
<path id="Vector_15" d="M267.35 198.082C265.101 198.082 263.083 196.052 262.843 193.73C262.766 192.562 263.033 191.398 263.609 190.393C264.186 189.387 265.044 188.589 266.069 188.104C266.279 187.991 266.51 187.929 266.747 187.922C267.521 187.922 267.903 188.88 268.152 189.641C268.926 191.997 270.3 194.295 272.456 195.386C274.613 196.478 277.627 195.918 278.765 193.725C275.714 192.313 274.41 187.879 276.184 184.939C276.871 183.804 277.94 182.842 278.157 181.521C278.553 179.127 276.028 177.384 273.793 176.666C267.341 174.592 244.853 174.363 243.613 184.365C242.313 194.917 260.267 199.48 267.35 198.082Z" fill="#263238"/>
<path id="Vector_16" d="M230.699 226.084C231.883 225.599 231.768 222.378 230.444 218.89C229.12 215.402 227.086 212.968 225.903 213.453C224.719 213.938 224.833 217.159 226.157 220.647C227.482 224.135 229.515 226.57 230.699 226.084Z" fill="#F8C198"/>
<path id="Vector_17" d="M301.159 220.622C302.483 217.134 302.598 213.913 301.414 213.428C300.23 212.943 298.197 215.377 296.872 218.865C295.548 222.353 295.434 225.574 296.618 226.059C297.801 226.544 299.835 224.11 301.159 220.622Z" fill="#F8C198"/>
<g id="Group" opacity="0.2">
<path id="Vector_18" opacity="0.2" d="M276.24 179.117C276.018 180.438 274.949 181.396 274.267 182.536C272.714 185.112 273.521 188.837 275.797 190.675C275.47 189.813 275.335 188.885 275.403 187.961C275.471 187.038 275.74 186.142 276.189 185.341C276.876 184.207 277.945 183.244 278.161 181.923C278.41 180.424 277.512 179.179 276.258 178.284C276.291 178.561 276.285 178.842 276.24 179.117V179.117Z" fill="white"/>
<path id="Vector_19" opacity="0.2" d="M266.641 188.329C266.493 187.97 266.355 187.606 266.235 187.242C265.986 186.481 265.604 185.547 264.83 185.523C264.593 185.53 264.362 185.593 264.152 185.705C263.127 186.19 262.269 186.989 261.692 187.994C261.116 188.999 260.849 190.164 260.926 191.331C261.012 192.035 261.24 192.713 261.595 193.319C261.95 193.926 262.424 194.447 262.986 194.85C262.921 194.614 262.875 194.372 262.848 194.127C262.77 192.96 263.037 191.795 263.614 190.79C264.19 189.785 265.049 188.986 266.074 188.501C266.252 188.412 266.444 188.353 266.641 188.329V188.329Z" fill="white"/>
<path id="Vector_20" opacity="0.2" d="M263.392 195.913C257.788 196.157 248.747 193.936 244.29 189.21C247.618 196.564 261.364 199.643 267.332 198.46C266.518 198.432 265.725 198.182 265.034 197.735C264.342 197.287 263.776 196.659 263.392 195.913V195.913Z" fill="white"/>
<path id="Vector_21" opacity="0.2" d="M276.419 191.968C275.074 193.61 272.465 193.955 270.544 192.983C269.916 192.661 269.341 192.24 268.839 191.733C269.583 193.461 270.859 194.882 272.465 195.774C274.622 196.861 277.636 196.306 278.774 194.113C277.805 193.651 276.987 192.906 276.419 191.968Z" fill="white"/>
</g>
<path id="Vector_22" d="M263.664 257.692C268.509 257.692 273.306 258.684 277.782 260.61C282.259 262.536 286.326 265.36 289.752 268.92C293.178 272.479 295.895 276.705 297.749 281.355C299.603 286.006 300.558 290.991 300.558 296.025V311.997H226.77V296.025C226.77 290.991 227.724 286.006 229.578 281.355C231.432 276.705 234.15 272.479 237.576 268.92C241.002 265.36 245.069 262.536 249.545 260.61C254.021 258.684 258.819 257.692 263.664 257.692V257.692Z" fill="#FF9800"/>
<path id="Vector_23" opacity="0.2" d="M264.046 257.893C262.704 257.893 261.362 257.968 260.028 258.118C260.488 258.118 260.908 258.09 261.355 258.09C271.14 258.09 280.524 262.128 287.443 269.317C294.362 276.506 298.249 286.256 298.249 296.422V312.194H300.94V296.226C300.94 286.059 297.053 276.309 290.134 269.121C283.215 261.932 273.831 257.893 264.046 257.893Z" fill="white"/>
<path id="Vector_24" opacity="0.2" d="M263.281 257.893C264.624 257.893 265.965 257.968 267.3 258.118C266.839 258.118 266.419 258.09 265.972 258.09C256.187 258.09 246.803 262.128 239.884 269.317C232.965 276.506 229.078 286.256 229.078 296.422V312.194H226.387V296.226C226.387 286.059 230.274 276.309 237.193 269.121C244.112 261.932 253.496 257.893 263.281 257.893V257.893Z" fill="white"/>
<path id="Vector_25" d="M274.424 258.291C274.424 252.116 269.606 247.111 263.664 247.111C257.721 247.111 252.903 252.116 252.903 258.291V262.882C252.903 269.057 257.721 274.062 263.664 274.062C269.606 274.062 274.424 269.057 274.424 262.882V258.291Z" fill="#F8C198"/>
</g>

<g id="window1">
<path id="Vector_36" d="M452.512 71H335V313.271H452.512V71Z" fill="#6C63FF"/>
<path id="Vector_37" d="M436.115 94.565H360.539V106.056H436.115V94.565Z" fill="white"/>
<path id="Vector_38" d="M436.115 117.547H360.539V129.038H436.115V117.547Z" fill="white"/>
<path id="Vector_39" d="M436.115 140.529H360.539V152.021H436.115V140.529Z" fill="white"/>
<path id="Vector_40" d="M436.115 163.512H360.539V175.003H436.115V163.512Z" fill="white"/>
<path id="Vector_41" d="M436.115 186.494H360.539V197.985H436.115V186.494Z" fill="white"/>
<path id="Vector_42" d="M436.115 209.476H360.539V220.967H436.115V209.476Z" fill="white"/>
<path id="Vector_43" d="M436.115 232.458H360.539V243.949H436.115V232.458Z" fill="white"/>
<path id="Vector_44" d="M436.115 255.44H360.539V266.932H436.115V255.44Z" fill="white"/>
<path id="Vector_45" d="M436.115 278.423H360.539V289.914H436.115V278.423Z" fill="white"/>
</g>

<g id="windon2">
<path id="Vector_46" d="M195.806 67H70V318.368H195.806V67Z" fill="url(#paint12_linear)"/>
<path id="Vector_47" d="M74.1475 312.144H191.659L191.659 69.8727L74.1475 69.8727L74.1475 312.144Z" fill="#6C63FF"/>
<path id="Vector_48" d="M172.304 91.8973H93.5023V106.74H172.304V91.8973Z" fill="url(#paint13_linear)"/>
<path id="Vector_49" d="M172.304 115.358H93.5023V130.201H172.304V115.358Z" fill="url(#paint14_linear)"/>
<path id="Vector_50" d="M172.304 137.862H93.5023V152.705H172.304V137.862Z" fill="url(#paint15_linear)"/>
<path id="Vector_51" d="M172.304 160.365H93.5023V175.208H172.304V160.365Z" fill="url(#paint16_linear)"/>
<path id="Vector_52" d="M172.304 183.347H93.5023V198.19H172.304V183.347Z" fill="url(#paint17_linear)"/>
<path id="Vector_53" d="M172.304 206.33H93.5023V221.172H172.304V206.33Z" fill="url(#paint18_linear)"/>
<path id="Vector_54" d="M170.922 93.8126H95.3456V105.304H170.922V93.8126Z" fill="white"/>
<path id="Vector_55" d="M170.691 116.316H95.1152V127.807H170.691V116.316Z" fill="white"/>
<path id="Vector_56" d="M170.691 139.298H95.1152V150.789H170.691V139.298Z" fill="white"/>
<path id="Vector_57" d="M170.691 162.28H95.1152V173.772H170.691V162.28Z" fill="white"/>
<path id="Vector_58" d="M170.691 185.263H95.1152V196.754H170.691V185.263Z" fill="white"/>
<path id="Vector_59" d="M170.691 208.245H95.1152V219.736H170.691V208.245Z" fill="white"/>
<path id="Vector_60" d="M172.304 229.312H93.5023V244.155H172.304V229.312Z" fill="url(#paint19_linear)"/>
<path id="Vector_61" d="M170.691 231.227H95.1152V242.718H170.691V231.227Z" fill="white"/>
<path id="Vector_62" d="M170.691 231.227H95.1152V242.718H170.691V231.227Z" fill="white"/>
<path id="Vector_63" d="M170.691 254.209H95.1152V265.7H170.691V254.209Z" fill="white"/>
<path id="Vector_64" d="M170.691 277.192H95.1152V288.683H170.691V277.192Z" fill="white"/>
</g>

<defs>
<linearGradient id="paint0_linear" x1="120796" y1="1694.84" x2="120796" y2="966.592" gradientUnits="userSpaceOnUse">
<stop stop-color="#808080" stop-opacity="0.25"/>
<stop offset="0.54" stop-color="#808080" stop-opacity="0.12"/>
<stop offset="1" stop-color="#808080" stop-opacity="0.1"/>
</linearGradient>
<linearGradient id="paint1_linear" x1="36804.2" y1="12404.8" x2="204366" y2="12404.8" gradientUnits="userSpaceOnUse">
<stop stop-color="#808080" stop-opacity="0.25"/>
<stop offset="0.54" stop-color="#808080" stop-opacity="0.12"/>
<stop offset="1" stop-color="#808080" stop-opacity="0.1"/>
</linearGradient>
<linearGradient id="paint2_linear" x1="393.903" y1="317.368" x2="393.903" y2="66" gradientUnits="userSpaceOnUse">
<stop stop-color="#808080" stop-opacity="0.25"/>
<stop offset="0.54" stop-color="#808080" stop-opacity="0.12"/>
<stop offset="1" stop-color="#808080" stop-opacity="0.1"/>
</linearGradient>
<linearGradient id="paint3_linear" x1="58076.8" y1="3627.22" x2="58076.8" y2="3167.1" gradientUnits="userSpaceOnUse">
<stop stop-opacity="0.12"/>
<stop offset="0.55" stop-opacity="0.09"/>
<stop offset="1" stop-opacity="0.02"/>
</linearGradient>
<linearGradient id="paint4_linear" x1="57997.5" y1="4362.65" x2="57997.5" y2="3902.53" gradientUnits="userSpaceOnUse">
<stop stop-opacity="0.12"/>
<stop offset="0.55" stop-opacity="0.09"/>
<stop offset="1" stop-opacity="0.02"/>
</linearGradient>
<linearGradient id="paint5_linear" x1="57997.5" y1="5098.08" x2="57997.5" y2="4637.96" gradientUnits="userSpaceOnUse">
<stop stop-opacity="0.12"/>
<stop offset="0.55" stop-opacity="0.09"/>
<stop offset="1" stop-opacity="0.02"/>
</linearGradient>
<linearGradient id="paint6_linear" x1="57997.5" y1="5833.51" x2="57997.5" y2="5373.39" gradientUnits="userSpaceOnUse">
<stop stop-opacity="0.12"/>
<stop offset="0.55" stop-opacity="0.09"/>
<stop offset="1" stop-opacity="0.02"/>
</linearGradient>
<linearGradient id="paint7_linear" x1="57997.5" y1="6568.94" x2="57997.5" y2="6108.82" gradientUnits="userSpaceOnUse">
<stop stop-opacity="0.12"/>
<stop offset="0.55" stop-opacity="0.09"/>
<stop offset="1" stop-opacity="0.02"/>
</linearGradient>
<linearGradient id="paint8_linear" x1="57997.5" y1="7304.37" x2="57997.5" y2="6844.25" gradientUnits="userSpaceOnUse">
<stop stop-opacity="0.12"/>
<stop offset="0.55" stop-opacity="0.09"/>
<stop offset="1" stop-opacity="0.02"/>
</linearGradient>
<linearGradient id="paint9_linear" x1="57997.5" y1="8039.8" x2="57997.5" y2="7579.68" gradientUnits="userSpaceOnUse">
<stop stop-opacity="0.12"/>
<stop offset="0.55" stop-opacity="0.09"/>
<stop offset="1" stop-opacity="0.02"/>
</linearGradient>
<linearGradient id="paint10_linear" x1="57997.5" y1="8775.24" x2="57997.5" y2="8315.11" gradientUnits="userSpaceOnUse">
<stop stop-opacity="0.12"/>
<stop offset="0.55" stop-opacity="0.09"/>
<stop offset="1" stop-opacity="0.02"/>
</linearGradient>
<linearGradient id="paint11_linear" x1="57997.5" y1="87" x2="57997.5" y2="87" gradientUnits="userSpaceOnUse">
<stop stop-opacity="0.12"/>
<stop offset="0.55" stop-opacity="0.09"/>
<stop offset="1" stop-opacity="0.02"/>
</linearGradient>
<linearGradient id="paint12_linear" x1="17242.6" y1="158932" x2="17242.6" y2="26963.4" gradientUnits="userSpaceOnUse">
<stop stop-color="#808080" stop-opacity="0.25"/>
<stop offset="0.54" stop-color="#808080" stop-opacity="0.12"/>
<stop offset="1" stop-color="#808080" stop-opacity="0.1"/>
</linearGradient>
<linearGradient id="paint13_linear" x1="132.903" y1="106.74" x2="132.903" y2="91.8973" gradientUnits="userSpaceOnUse">
<stop stop-opacity="0.12"/>
<stop offset="0.55" stop-opacity="0.09"/>
<stop offset="1" stop-opacity="0.02"/>
</linearGradient>
<linearGradient id="paint14_linear" x1="4112.4" y1="3432.7" x2="17587.5" y2="3432.7" gradientUnits="userSpaceOnUse">
<stop stop-opacity="0.12"/>
<stop offset="0.55" stop-opacity="0.09"/>
<stop offset="1" stop-opacity="0.02"/>
</linearGradient>
<linearGradient id="paint15_linear" x1="4112.4" y1="4152.81" x2="17587.5" y2="4152.81" gradientUnits="userSpaceOnUse">
<stop stop-opacity="0.12"/>
<stop offset="0.55" stop-opacity="0.09"/>
<stop offset="1" stop-opacity="0.02"/>
</linearGradient>
<linearGradient id="paint16_linear" x1="4112.4" y1="4872.92" x2="17587.5" y2="4872.92" gradientUnits="userSpaceOnUse">
<stop stop-opacity="0.12"/>
<stop offset="0.55" stop-opacity="0.09"/>
<stop offset="1" stop-opacity="0.02"/>
</linearGradient>
<linearGradient id="paint17_linear" x1="4112.4" y1="5608.35" x2="17587.5" y2="5608.35" gradientUnits="userSpaceOnUse">
<stop stop-opacity="0.12"/>
<stop offset="0.55" stop-opacity="0.09"/>
<stop offset="1" stop-opacity="0.02"/>
</linearGradient>
<linearGradient id="paint18_linear" x1="4112.4" y1="6343.78" x2="17587.5" y2="6343.78" gradientUnits="userSpaceOnUse">
<stop stop-opacity="0.12"/>
<stop offset="0.55" stop-opacity="0.09"/>
<stop offset="1" stop-opacity="0.02"/>
</linearGradient>
<linearGradient id="paint19_linear" x1="4112.4" y1="7079.21" x2="17587.5" y2="7079.21" gradientUnits="userSpaceOnUse">
<stop stop-opacity="0.12"/>
<stop offset="0.55" stop-opacity="0.09"/>
<stop offset="1" stop-opacity="0.02"/>
</linearGradient>
</defs>
</svg>
