<svg class="uiux_page" viewBox="0 0 1165 556" fill="none" xmlns="http://www.w3.org/2000/svg">
<g id="ui&#38;ux 1" clip-path="url(#clip0)">
<g id="Group 1">
<path id="Vector" opacity="0.1" d="M1166.2 497.554C1160.63 509.163 1152.78 519.325 1143.2 527.337C1141.84 528.513 1140.45 529.646 1139.04 530.758C1137.14 532.196 1135.2 533.61 1133.2 534.998C1117.71 545.606 1099.57 552.857 1081.86 558.145C1077.04 559.584 1072.19 560.936 1067.33 562.202C1063.23 563.274 1059.13 564.274 1055.02 565.202C1053.46 565.569 1051.9 565.914 1050.34 566.281C1048.78 566.648 1046.99 567.004 1045.34 567.36L1042.97 567.846C997.154 576.964 950.735 578.701 903.975 576.414L901.755 576.295L898.205 576.101C888.711 575.568 879.208 574.889 869.695 574.061L866.095 573.748L864.505 573.608C859.171 573.126 853.838 572.597 848.505 572.022C841.478 571.302 834.441 570.507 827.395 569.637L826.485 569.529L825.745 569.432C800.595 566.378 775.385 562.709 750.145 558.943L746.575 558.404L740.165 557.443L734.765 556.634L733.165 556.397C724.645 555.109 716.125 553.836 707.605 552.577L706.225 552.372C690.225 550.008 674.135 547.732 658.095 545.66L656.005 545.39C649.438 544.548 642.875 543.746 636.315 542.984L631.315 542.412L624.665 541.689C606.235 539.714 587.815 538.139 569.435 537.157C560.595 536.682 551.735 536.322 542.855 536.077C535.521 535.898 528.188 535.793 520.855 535.765C510.908 535.714 500.941 535.775 490.955 535.948H488.695C474.625 536.196 460.525 536.628 446.415 537.146L443.875 537.232H443.035C413.035 538.376 383.035 539.897 353.115 540.987L345.805 541.246H344.745C334.345 541.606 323.955 541.883 313.575 542.077H310.825H310.735H307.395L302.755 542.142C297.935 542.192 293.125 542.221 288.325 542.228H282.435C264.815 542.174 247.265 541.754 229.825 540.772L227.885 540.653C193.995 538.678 160.485 534.599 127.575 527.186C124.168 526.416 120.768 525.61 117.375 524.769C94.6336 519.267 72.305 511.941 50.5746 502.853C40.3346 498.536 30.0346 493.551 22.2446 485.112C2.48456 463.531 9.90456 421.263 35.6146 408.972C55.7246 399.358 79.2846 407.181 100.915 402.843C102.244 402.57 103.556 402.209 104.845 401.764C107.594 400.807 110.269 399.617 112.845 398.203C113.725 397.728 114.605 397.221 115.495 396.692C117.495 395.516 119.495 394.211 121.415 392.786C124.553 390.533 127.559 388.072 130.415 385.416C131.681 384.251 132.915 383.042 134.115 381.79C138.267 377.581 141.934 372.845 145.035 367.687C146.164 365.735 147.166 363.702 148.035 361.601C148.505 360.522 148.925 359.356 149.275 358.234C149.797 356.61 150.195 354.943 150.465 353.249C151.725 345.242 149.685 337.429 142.585 330.825C141.949 330.239 141.281 329.695 140.585 329.196C139.209 328.166 137.758 327.26 136.245 326.487C135.635 326.174 135.005 325.872 134.365 325.581C125.225 321.426 113.435 319.829 103.495 316.948C100.465 316.119 97.5078 315.011 94.6546 313.635C92.8446 312.729 91.0446 311.779 89.2746 310.787L88.8046 310.506C73.6905 302.097 60.3987 290.329 49.8046 275.975C47.171 272.348 44.7464 268.55 42.5446 264.602C41.8746 263.415 41.2246 262.196 40.6046 260.976C23.0346 226.769 21.2246 182.937 39.5046 149.302C41.7253 145.221 44.1975 141.306 46.9046 137.583C47.7846 136.353 48.6946 135.144 49.6346 133.957C67.0346 111.804 92.0346 96.7937 117.275 85.6792C151.155 70.7663 186.625 61.3459 222.775 55.1411C230.108 53.8822 237.441 52.7528 244.775 51.7528C275.475 47.5228 306.535 45.2783 337.375 43.5734C366.221 41.9979 395.195 40.98 424.295 40.5196C434.155 40.3757 444.025 40.3146 453.905 40.3361C476.165 40.3361 498.425 40.8001 520.685 41.7281C528.018 42.0303 535.351 42.39 542.685 42.8072C561.491 43.8575 580.261 45.2963 598.995 47.1236C607.995 48.0012 616.975 48.9688 625.935 50.0263C694.175 58.0762 761.425 71.7267 826.355 92.9522C833.721 95.355 841.055 97.8728 848.355 100.506C875.66 110.207 902.491 121.397 928.745 134.033C931.225 135.234 933.698 136.443 936.165 137.659C952.558 145.773 968.718 154.517 984.645 163.891C1005.66 176.097 1025.91 189.795 1045.24 204.896C1052.79 210.867 1060.12 217.097 1067.24 223.586C1079.83 235.041 1091.57 247.539 1102.35 260.965C1103.31 262.167 1104.26 263.375 1105.2 264.591C1110.08 270.915 1114.72 277.465 1119.1 284.241C1140.5 317.434 1154.86 355.396 1165.46 394.178C1174.81 428.018 1181.03 466.013 1166.2 497.554Z" fill="#6C63FF"/>
<path id="Vector_2" opacity="0.1" d="M1152.75 381.79H1067.32V264.526H1105.32C1104.38 263.311 1103.43 262.102 1102.47 260.901H1067.36V223.521C1060.26 217.047 1052.92 210.817 1045.36 204.831V260.944H848.415V137.583H936.225C933.751 136.367 931.278 135.159 928.805 133.957H848.415V100.43C841.081 97.8188 833.748 95.301 826.415 92.8766V133.882H545.335L544.665 133.191L625.975 49.9076C617.015 48.8429 608.035 47.8753 599.035 47.0048L542.725 104.671V42.7317C535.391 42.3144 528.058 41.9547 520.725 41.6526V108.653L453.945 40.2606C444.071 40.2606 434.201 40.3217 424.335 40.444L514.895 133.191L514.225 133.882H244.795V51.796C237.461 52.7959 230.128 53.9253 222.795 55.1843V133.957H49.6346C48.6946 135.144 47.7846 136.353 46.9046 137.583H222.775V260.901H40.5646C41.1846 262.12 41.8346 263.339 42.5046 264.526H222.775V381.79H134.105C132.905 383.042 131.671 384.251 130.405 385.416H222.775V505.41C230.108 506.539 237.441 507.719 244.775 508.949V385.416H520.705V535.765C528.038 535.765 535.371 535.869 542.705 536.077V385.416H826.395V569.475L827.305 569.583C834.345 570.432 841.381 571.227 848.415 571.968V385.416H1045.3V567.306C1046.98 566.972 1048.66 566.616 1050.3 566.227C1051.94 565.839 1053.42 565.547 1054.98 565.148C1059.09 564.206 1063.19 563.206 1067.29 562.148V385.416H1153.41C1153.19 384.207 1152.97 382.999 1152.75 381.79ZM520.705 381.79H244.795V264.526H520.705V381.79ZM520.705 260.933H244.795V137.583H516.795L520.675 140.885L520.705 260.933ZM826.395 381.79H542.725V264.526H826.395V381.79ZM826.395 260.933H542.725V137.583H826.395V260.933ZM1045.3 381.79H848.415V264.526H1045.3V381.79Z" fill="#6C63FF"/>
<path id="Vector_3" d="M308.185 547.354C308.185 547.473 308.105 547.591 308.075 547.71C308.075 547.591 308.145 547.473 308.195 547.354H308.185Z" fill="#EAECF0"/>
<path id="Vector_4" d="M313.405 542.185H310.655H310.565H307.225L302.585 542.25L302.075 536.563L301.605 531.168L299.425 506.554L299.355 505.798V505.464L298.745 498.536L308.085 494.759L309.225 504.806L309.305 505.55V505.637L311.615 526.031L312.325 532.29L312.735 535.926L313.085 539.045V539.153L313.405 542.185Z" fill="#EAECF0"/>
<path id="Vector_5" d="M346.935 547.343L347.045 547.699H346.305L346.195 547.343H346.935Z" fill="#3A3768"/>
<path id="Vector_6" d="M491.775 405.174C491.775 405.39 491.775 405.508 491.775 405.508V405.638C491.775 405.638 483.055 431.353 480.215 453.301C480.021 454.74 479.861 456.179 479.735 457.617C479.595 459.139 479.485 460.628 479.425 462.074C479.345 463.768 479.325 465.408 479.365 466.973C479.365 467.329 479.365 467.696 479.365 468.052C479.365 468.775 479.435 469.52 479.475 470.286C479.515 471.052 479.575 471.818 479.635 472.617C479.695 473.415 479.755 474.117 479.825 474.883C481.975 498.623 490.145 533.38 490.145 533.38C490.145 533.38 490.415 534.319 490.765 535.916H488.505C474.435 536.164 460.335 536.595 446.225 537.113L443.685 537.2H442.845C412.845 538.344 382.845 539.865 352.925 540.955L345.615 541.214H344.555C334.155 541.574 323.765 541.851 313.385 542.045H310.635C311.34 540.971 312.151 539.984 313.055 539.099C313.814 538.339 314.634 537.653 315.505 537.049C320.257 533.851 325.433 531.453 330.855 529.938C331.998 529.6 333.18 529.444 334.365 529.474L341.365 529.625H342.445L353.185 529.851L445.305 531.826H445.535L446.185 531.686C447.254 531.398 448.295 531.001 449.295 530.499C451.025 529.711 452.538 528.455 453.687 526.852C454.836 525.249 455.583 523.353 455.855 521.348C455.855 521.014 455.935 520.657 455.955 520.269C455.985 519.744 455.985 519.218 455.955 518.693C455.955 518.327 455.955 517.938 455.875 517.539C455.795 517.14 455.775 516.74 455.705 516.33C453.485 502.939 449.705 461.718 449.705 461.718V461.847C449.705 461.847 449.705 460.089 449.795 457.132C449.795 456.905 449.795 456.657 449.795 456.409V455.772C449.795 455.114 449.865 454.402 449.905 453.614C449.905 453.15 449.965 452.675 449.995 452.179C450.045 451.456 450.105 450.711 450.165 449.934C450.16 449.888 450.16 449.841 450.165 449.794C450.205 449.305 450.245 448.809 450.285 448.305C450.285 448.305 450.285 448.197 450.285 448.143C451.775 432.227 456.465 407.03 471.285 397.696C478.235 393.304 482.835 392.419 485.865 393.283C490.285 394.534 491.395 399.498 491.635 402.724C491.635 402.94 491.635 403.145 491.635 403.35C491.714 403.955 491.761 404.564 491.775 405.174V405.174Z" fill="#3A3768"/>
<path id="Vector_7" opacity="0.1" d="M308.185 547.354C308.185 547.473 308.105 547.591 308.075 547.71C308.075 547.591 308.145 547.473 308.195 547.354H308.185Z" fill="black" fill-opacity="0.97"/>
<path id="Vector_8" opacity="0.1" d="M346.935 547.343L347.045 547.699H346.305L346.195 547.343H346.935Z" fill="black" fill-opacity="0.97"/>
<path id="Vector_9" opacity="0.1" d="M491.775 405.174C491.775 405.39 491.775 405.509 491.775 405.509C491.775 405.509 484.585 426.713 481.155 447.042C480.915 448.481 480.695 449.873 480.495 451.218C480.395 451.909 480.305 452.6 480.215 453.29C480.021 454.729 479.861 456.168 479.735 457.607C479.595 459.128 479.485 460.617 479.425 462.063C479.345 463.757 479.325 465.398 479.365 466.962C479.365 467.318 479.365 467.685 479.365 468.041C479.365 468.764 479.435 469.509 479.475 470.275C479.515 471.041 479.575 471.818 479.635 472.606C479.695 473.394 479.755 474.106 479.825 474.872C479.895 475.638 479.965 476.372 480.045 477.127C480.365 480.181 480.765 483.386 481.225 486.645C484.355 508.626 490.145 533.25 490.145 533.25C490.145 533.25 490.435 534.243 490.785 535.905H488.525C474.455 536.153 460.355 536.585 446.245 537.103L443.705 537.189H442.865C412.865 538.333 382.865 539.854 352.945 540.944L345.635 541.203H344.575C334.175 541.563 323.785 541.84 313.405 542.034H310.655H310.565C311.291 540.92 312.13 539.896 313.065 538.98C313.822 538.208 314.646 537.514 315.525 536.908C320.281 533.719 325.456 531.322 330.875 529.797C332.019 529.469 333.201 529.316 334.385 529.344L341.385 529.495H342.465L353.235 529.722L445.425 531.686H445.585C445.585 531.686 445.855 531.686 446.305 531.524C447.384 531.235 448.433 530.826 449.435 530.304C451.127 529.52 452.607 528.287 453.739 526.719C454.87 525.151 455.615 523.3 455.905 521.337C455.905 521.003 455.985 520.647 456.005 520.258C456.035 519.734 456.035 519.207 456.005 518.683C456.005 518.316 456.005 517.927 455.925 517.528C455.845 517.129 455.825 516.654 455.755 516.201C453.535 502.809 449.755 461.588 449.755 461.588C449.755 461.588 449.755 459.83 449.845 456.873C449.845 456.646 449.845 456.398 449.845 456.15V455.513C449.845 454.855 449.915 454.143 449.955 453.355C449.955 452.891 450.015 452.416 450.045 451.92C450.095 451.197 450.155 450.452 450.215 449.675C450.21 449.629 450.21 449.582 450.215 449.535C450.255 449.046 450.295 448.55 450.335 448.046C450.335 448.046 450.335 447.938 450.335 447.884C450.515 445.899 450.755 443.762 451.055 441.528C453.135 425.903 458.335 405.498 471.295 397.286C478.065 392.97 482.595 392.063 485.635 392.808C490.315 393.962 491.425 399.164 491.635 402.444C491.635 402.66 491.635 402.865 491.635 403.07C491.725 403.767 491.771 404.47 491.775 405.174V405.174Z" fill="black" fill-opacity="0.97"/>
<path id="Vector_10" d="M308.185 547.354C308.185 547.473 308.105 547.591 308.075 547.71C308.075 547.591 308.145 547.473 308.195 547.354H308.185Z" fill="#3A3768"/>
<path id="Vector_11" d="M346.935 547.343L347.045 547.699H346.305L346.195 547.343H346.935Z" fill="#3A3768"/>
<path id="Vector_12" d="M489.215 404.257C489.215 404.257 476.165 442.737 476.795 465.765C477.425 488.792 487.615 532.063 487.615 532.063C487.615 532.063 488.055 533.585 488.525 536.013C474.455 536.261 460.355 536.693 446.245 537.211L443.705 537.297H442.865C412.865 538.441 382.865 539.962 352.945 541.052L345.635 541.311H344.575C334.175 541.671 323.785 541.948 313.405 542.142H310.655H310.565H307.225C308.601 539.65 310.477 537.523 312.715 535.916L312.985 535.711C317.746 532.574 322.917 530.228 328.325 528.751C329.469 528.422 330.651 528.27 331.835 528.297L341.075 528.492H342.155L353.285 528.729L443.035 530.661C444.318 530.4 445.565 529.962 446.745 529.355C447.137 529.161 447.517 528.941 447.885 528.697V528.697C449.011 527.996 450.024 527.104 450.885 526.053C452.775 523.733 454.035 520.28 453.195 515.262C450.965 501.871 447.195 460.65 447.195 460.65C447.195 460.65 446.555 410.494 468.835 396.412C477.835 390.725 482.895 390.919 485.725 393.175C485.809 393.232 485.889 393.297 485.965 393.369C489.865 396.757 489.215 404.257 489.215 404.257Z" fill="#3A3768"/>
<path id="Vector_13" d="M130.115 498.677L129.755 502.701L127.575 527.402C124.168 526.632 120.768 525.826 117.375 524.985L119.925 502.529L120.785 494.9L130.115 498.677Z" fill="#EAECF0"/>
<path id="Vector_14" d="M66.1146 490.691L120.575 365.615L339.945 384.078L360.165 490.691H66.1146Z" fill="#EFC6CD"/>
<path id="Vector_15" d="M66.1146 501.601V490.691H360.165V506.64L66.1146 501.601Z" fill="#D48A9B"/>
<path id="Vector_16" d="M149.035 472.422L280.595 475.314C280.886 475.322 281.175 475.253 281.436 475.115C281.698 474.977 281.925 474.773 282.099 474.52C282.272 474.267 282.387 473.973 282.433 473.663C282.479 473.352 282.456 473.034 282.365 472.735L261.855 413.041L173.245 411.217L147.035 469.12C146.888 469.479 146.827 469.871 146.856 470.262C146.886 470.653 147.006 471.029 147.204 471.357C147.403 471.685 147.674 471.954 147.994 472.14C148.314 472.326 148.671 472.423 149.035 472.422Z" fill="#DFE6F5"/>
<path id="Vector_17" opacity="0.15" d="M149.035 472.422L280.595 475.314C280.886 475.322 281.175 475.253 281.436 475.115C281.698 474.977 281.925 474.773 282.099 474.52C282.272 474.267 282.387 473.973 282.433 473.663C282.479 473.352 282.456 473.034 282.365 472.735L261.855 413.041L173.245 411.217L147.035 469.12C146.888 469.479 146.827 469.871 146.856 470.262C146.886 470.653 147.006 471.029 147.204 471.357C147.403 471.685 147.674 471.954 147.994 472.14C148.314 472.326 148.671 472.423 149.035 472.422Z" fill="black" fill-opacity="0.97"/>
<path id="Vector_18" d="M147.975 469.93L280.895 472.951L262.825 413.893C262.533 412.936 261.973 412.1 261.223 411.501C260.472 410.902 259.568 410.569 258.635 410.548L173.215 408.8L147.975 469.93Z" fill="#DFE6F5"/>
<path id="Vector_19" d="M158.955 456.56L174.885 418.738C175.223 417.94 175.767 417.264 176.451 416.79C177.135 416.315 177.931 416.063 178.745 416.062H218.335C219.456 416.062 220.532 416.543 221.326 417.399C222.119 418.255 222.565 419.416 222.565 420.626V461.491C222.564 462.11 222.447 462.722 222.221 463.29C221.995 463.859 221.664 464.372 221.249 464.798C220.834 465.225 220.343 465.556 219.806 465.772C219.269 465.989 218.697 466.085 218.125 466.056L162.595 463.002C161.906 462.965 161.237 462.746 160.644 462.366C160.052 461.985 159.555 461.455 159.196 460.82C158.837 460.184 158.628 459.464 158.586 458.722C158.544 457.98 158.67 457.237 158.955 456.56V456.56Z" fill="#101012"/>
<path id="Vector_20" d="M237.035 451.769L237.715 430.187C237.733 429.324 238.063 428.502 238.635 427.897C239.206 427.292 239.974 426.952 240.775 426.95H252.475C253.193 426.954 253.888 427.231 254.436 427.732C254.985 428.233 255.352 428.926 255.475 429.691L258.915 451.154C258.99 451.627 258.969 452.112 258.853 452.576C258.738 453.04 258.53 453.471 258.245 453.839C257.959 454.208 257.603 454.505 257.201 454.71C256.798 454.915 256.36 455.024 255.915 455.028L240.085 455.179C239.675 455.177 239.27 455.088 238.893 454.914C238.516 454.741 238.176 454.488 237.891 454.17C237.607 453.852 237.384 453.476 237.237 453.063C237.09 452.651 237.021 452.21 237.035 451.769Z" fill="#D1D9EC"/>
<path id="Vector_21" d="M82.0345 311.402L126.145 307.431C126.789 307.339 127.444 307.476 128.01 307.82C128.576 308.165 129.024 308.698 129.285 309.341L170.995 411.217L147.715 467.61C148.445 465.84 148.985 479.609 143.715 467.674L77.4245 318.448C76.5345 316.452 79.9645 311.682 82.0345 311.402Z" fill="#101012"/>
<path id="Vector_22" opacity="0.15" d="M82.0345 311.402L126.145 307.431C126.789 307.339 127.444 307.476 128.01 307.82C128.576 308.165 129.024 308.698 129.285 309.341L170.995 411.217L147.715 467.61C148.445 465.84 148.985 479.609 143.715 467.674L77.4245 318.448C76.5345 316.452 79.9645 311.682 82.0345 311.402Z" fill="black" fill-opacity="0.97"/>
<path id="Vector_23" d="M82.0346 311.402L128.385 305.014C129.029 304.922 129.684 305.058 130.25 305.403C130.816 305.747 131.264 306.281 131.525 306.924L173.245 408.8L148.005 469.93L79.6646 316.031C79.4551 315.565 79.3525 315.051 79.3654 314.533C79.3782 314.015 79.5062 313.508 79.7384 313.054C79.9706 312.6 80.3004 312.214 80.7 311.926C81.0995 311.638 81.5572 311.459 82.0346 311.402Z" fill="#101012"/>
<path id="Vector_24" d="M93.6046 318.567L127.115 312.934C127.785 312.82 128.471 312.954 129.061 313.314C129.651 313.675 130.111 314.241 130.365 314.92L165.465 407.57C165.608 407.948 165.677 408.355 165.667 408.763C165.657 409.172 165.567 409.574 165.405 409.944L149.335 446.179C149.116 446.683 148.769 447.109 148.335 447.408C147.9 447.706 147.395 447.865 146.88 447.865C146.364 447.865 145.859 447.706 145.425 447.408C144.99 447.109 144.643 446.683 144.425 446.179L91.3346 323.164C91.1323 322.706 91.0324 322.204 91.0428 321.698C91.0532 321.191 91.1737 320.694 91.3945 320.247C91.6153 319.8 91.9303 319.415 92.3142 319.123C92.698 318.831 93.14 318.641 93.6046 318.567V318.567Z" fill="#6C63FF"/>
<path id="Vector_25" d="M451.155 527.326C451.155 527.326 450.465 528.556 449.455 530.563L449.365 530.747C448.465 532.473 447.365 534.739 446.245 537.221L443.705 537.308H442.865C412.865 538.451 382.865 539.973 352.945 541.063L345.635 541.322H344.575C334.175 541.682 323.785 541.958 313.405 542.153H310.655H310.565H307.225L302.585 542.217C297.765 542.268 292.955 542.297 288.155 542.304H282.435C264.815 542.25 247.265 541.829 229.825 540.847L227.885 540.728C231.315 532.678 237.445 519.481 242.425 515.262C246.275 512.025 273.925 508.431 299.355 505.798L302.035 505.518H302.095L309.195 504.806C318.925 503.845 327.755 503.068 334.055 502.54L334.635 502.486L331.355 490.616L326.605 473.35L327.955 458.848L328.065 457.682H327.915C326.561 457.838 325.192 457.653 323.915 457.143L276.425 455.373H275.565L257.325 454.671C247.545 454.294 240.595 454.013 240.325 453.959C240.038 453.907 239.756 453.824 239.485 453.711C239.059 453.537 238.666 453.281 238.325 452.956C237.926 452.588 237.588 452.15 237.325 451.661H237.125H236.685L234.105 451.844L232.795 451.941C232.745 451.79 232.705 451.639 232.655 451.499C232.535 451.078 232.415 450.679 232.305 450.269H231.615L222.615 450.064H222.455C222.455 450.064 199.235 451.974 187.105 447.204C182.655 445.456 179.695 442.812 179.925 438.852C179.975 437.951 180.15 437.064 180.445 436.219C176.545 428.353 195.595 414.001 210.115 417.961C214.038 419.172 218.172 419.356 222.175 418.501C224.347 417.994 226.393 416.989 228.175 415.555C228.355 415.414 228.515 415.274 228.665 415.134C228.425 414.972 228.175 414.832 227.945 414.702C226.949 414.137 225.881 413.737 224.775 413.515L228.715 412.274H228.775C228.775 412.274 242.775 410.893 251.885 410.343H251.945C254.655 410.192 256.945 410.095 258.305 410.138C264.305 410.321 275.995 405.692 276.495 404.268C276.995 402.843 282.335 404.268 282.335 404.268L287.005 402.304C291.675 400.35 294.345 397.685 294.345 395.721C294.345 393.757 298.515 391.631 298.515 391.631C300.395 388.222 304.085 384.564 307.955 381.326C311.305 378.531 314.785 376.039 317.365 374.301C318.365 367.311 319.7 360.381 321.365 353.54C323.135 347.163 328.625 342.436 330.595 340.904L331.315 340.386C330.762 337.698 330.027 335.058 329.115 332.487C329.048 332.271 328.968 332.055 328.875 331.84C328.675 331.332 328.465 330.836 328.255 330.372L327.945 329.725C327.435 329.832 326.945 329.93 326.405 330.005C324.749 330.267 323.078 330.4 321.405 330.404C313.906 330.434 306.605 327.813 300.619 322.941C294.632 318.069 290.289 311.215 288.255 303.427C288.255 303.427 288.255 303.427 288.255 303.363C287.452 300.198 287.049 296.931 287.055 293.651C287.05 290.502 287.433 287.367 288.195 284.327C288.195 284.327 288.195 284.327 288.195 284.327C288.345 283.68 288.525 283.043 288.715 282.407C288.733 282.333 288.757 282.261 288.785 282.191C288.875 281.9 288.965 281.597 289.065 281.306C287.584 281.549 286.091 281.689 284.595 281.727H283.595C280.739 281.842 277.892 281.332 275.225 280.227V280.227C274.578 279.93 273.959 279.569 273.375 279.148C273.344 279.133 273.317 279.111 273.295 279.083C272.535 278.604 271.841 278.012 271.235 277.324C272.347 276.404 273.28 275.256 273.979 273.944C274.677 272.633 275.128 271.185 275.305 269.684C275.575 267.354 275.215 264.753 276.505 262.854C277.165 261.996 277.956 261.266 278.845 260.696C284.165 256.779 288.385 251.405 293.195 246.775C298.005 242.146 303.825 238.143 310.295 237.927C318.975 237.636 326.615 244.153 335.215 245.383C337.855 245.761 340.565 245.632 343.145 246.344C346.036 247.319 348.756 248.807 351.195 250.746C353.397 252.098 355.344 253.884 356.935 256.012C358.039 257.858 358.831 259.9 359.275 262.044C360.388 266.564 361.059 271.197 361.275 275.867C361.505 280.756 361.275 285.676 361.755 290.532C362.094 294.75 363.415 298.807 365.595 302.327H365.725C366.104 302.902 366.518 303.45 366.965 303.967C366.115 304.258 365.265 304.517 364.395 304.744C362.948 305.144 361.483 305.457 360.005 305.683C359.327 305.803 358.641 305.864 357.955 305.866C357.478 305.879 357.001 305.832 356.535 305.726L357.415 306.362L359.855 308.132L360.775 308.79L362.625 310.118C363.045 308.79 363.625 308.434 364.295 308.521C365.655 307.139 367.685 310.128 367.685 310.128C368.875 312.589 372.075 315.038 374.905 316.851C376.568 317.908 378.28 318.873 380.035 319.743C417.405 343.774 415.035 379.729 417.235 382.578C419.435 385.427 419.575 395.743 419.575 395.743C419.575 395.743 425.085 430.802 427.575 433.834C430.065 436.867 427.735 437.924 429.905 441.312C432.075 444.701 431.575 453.765 431.575 453.765C431.575 453.765 433.075 475.12 438.415 479.749C443.205 483.904 449.605 518.855 450.875 525.999L451.155 527.326Z" fill="url(#paint0_linear)"/>
<path id="Vector_26" d="M232.125 414.843C232.125 414.843 226.935 423.659 212.235 419.601C197.535 415.544 178.085 430.889 183.635 438.464C189.185 446.039 224.975 436.306 224.975 436.306L238.705 433.306L237.805 420.972L232.125 414.843Z" fill="#D38884"/>
<path id="Vector_27" opacity="0.1" d="M232.125 414.843C232.125 414.843 226.935 423.659 212.235 419.601C197.535 415.544 178.085 430.889 183.635 438.464C189.185 446.039 224.975 436.306 224.975 436.306L238.705 433.306L237.805 420.972L232.125 414.843Z" fill="black" fill-opacity="0.97"/>
<path id="Vector_28" d="M236.905 414.368L230.535 414.012L226.615 415.242C226.615 415.242 239.035 417.184 235.615 435.345L249.005 434.471L236.905 414.368Z" fill="#A36468"/>
<path id="Vector_29" opacity="0.1" d="M236.905 414.368L230.535 414.012L226.615 415.242C226.615 415.242 239.035 417.184 235.615 435.345L249.005 434.471L236.905 414.368Z" fill="black" fill-opacity="0.97"/>
<path id="Vector_30" d="M321.225 373.751C321.225 373.751 303.745 384.542 298.835 393.509C298.835 393.509 294.755 395.667 294.755 397.566C294.755 399.466 292.135 402.142 287.565 404.041L282.985 405.983C282.985 405.983 277.755 404.57 277.265 405.983C276.775 407.397 265.345 411.972 259.455 411.8C253.565 411.627 230.535 413.958 230.535 413.958C234.752 416.024 238.196 419.572 240.303 424.023C242.41 428.475 243.056 433.565 242.135 438.464L296.555 436.003L317.135 431.061L329.235 418.015L321.225 373.751Z" fill="#444053"/>
<path id="Vector_31" opacity="0.1" d="M321.225 373.751C321.225 373.751 303.745 384.542 298.835 393.509C298.835 393.509 294.755 395.667 294.755 397.566C294.755 399.466 292.135 402.142 287.565 404.041L282.985 405.983C282.985 405.983 277.755 404.57 277.265 405.983C276.775 407.397 265.345 411.972 259.455 411.8C253.565 411.627 230.535 413.958 230.535 413.958C234.752 416.024 238.196 419.572 240.303 424.023C242.41 428.475 243.056 433.565 242.135 438.464L296.555 436.003L317.135 431.061L329.235 418.015L321.225 373.751Z" fill="black" fill-opacity="0.97"/>
<path id="Vector_32" d="M241.035 451.769L233.335 451.607L224.335 451.402C224.335 451.402 181.835 454.931 182.665 440.266C183.495 425.601 216.185 420.454 220.735 424.662C224.185 427.846 232.165 430.414 235.805 431.46C236.965 431.795 237.675 431.978 237.675 431.978L241.035 451.769Z" fill="#D38884"/>
<path id="Vector_33" opacity="0.1" d="M241.035 451.769L233.335 451.607C230.265 440.223 233.825 433.953 235.845 431.493C237.005 431.827 237.715 432.011 237.715 432.011L241.035 451.769Z" fill="black" fill-opacity="0.97"/>
<path id="Vector_34" d="M246.225 452.395L238.225 452.999L234.425 453.279C229.195 436.705 237.645 430.176 237.645 430.176H240.145L244.235 430.705L246.225 452.395Z" fill="#A36468"/>
<path id="Vector_35" d="M343.125 342.371L333.645 361.795C333.645 361.795 332.195 342.123 327.975 332.854C326.895 330.48 325.635 328.797 324.165 328.289C320.165 326.93 343.165 299.726 343.165 299.726C343.935 299.899 348.335 302.963 353.725 306.924C359.655 311.24 366.795 316.506 371.595 319.872C380.705 326.142 343.125 342.371 343.125 342.371Z" fill="#D38884"/>
<path id="Vector_36" d="M330.965 342.738C330.965 342.738 323.345 348.015 321.225 355.774C319.105 363.532 317.135 377.463 317.135 377.463C317.135 377.463 320.575 410.785 322.365 412.371C324.155 413.958 330.965 447.28 330.965 447.28L337.565 442.521L328.905 400.556C328.905 400.556 334.665 346.634 330.965 342.738Z" fill="#444053"/>
<path id="Vector_37" opacity="0.1" d="M330.965 342.738C330.965 342.738 323.345 348.015 321.225 355.774C319.105 363.532 317.135 377.463 317.135 377.463C317.135 377.463 320.575 410.785 322.365 412.371C324.155 413.958 330.965 447.28 330.965 447.28L337.565 442.521L328.905 400.556C328.905 400.556 334.665 346.634 330.965 342.738Z" fill="black" fill-opacity="0.97"/>
<path id="Vector_38" d="M364.125 417.076H326.035L332.205 352.234H364.125V417.076Z" fill="#A36468"/>
<path id="Vector_39" d="M275.875 547.354H276.335L275.475 547.71L275.875 547.354Z" fill="#1D1B29"/>
<path id="Vector_40" d="M347.535 517.819L340.085 520.906L339.085 521.305L312.265 532.43L302.035 536.671L288.115 542.444H282.435C264.815 542.39 247.265 541.969 229.825 540.987C233.205 532.991 239.115 520.193 243.935 516.061C247.695 512.823 274.595 509.327 299.425 506.694C302.525 506.37 305.585 506.057 308.565 505.766L309.275 505.691C319.135 504.719 328.055 503.932 334.275 503.392L335.275 503.306L343.095 502.658L343.915 501.773L344.915 506.392L345.745 510.082L347.535 517.819Z" fill="#1D1B29"/>
<path id="Vector_41" opacity="0.1" d="M275.875 547.354H276.335L275.475 547.71L275.875 547.354Z" fill="black" fill-opacity="0.97"/>
<path id="Vector_42" opacity="0.1" d="M347.535 517.819L340.085 520.906L339.085 521.305L312.265 532.43L302.035 536.671L288.115 542.444H282.435C264.815 542.39 247.265 541.969 229.825 540.987C233.205 532.991 239.115 520.193 243.935 516.061C247.695 512.823 274.595 509.327 299.425 506.694C302.525 506.37 305.585 506.057 308.565 505.766L309.275 505.691C319.135 504.719 328.055 503.932 334.275 503.392L335.275 503.306L343.095 502.658L343.915 501.773L344.915 506.392L345.745 510.082L347.535 517.819Z" fill="black" fill-opacity="0.97"/>
<path id="Vector_43" d="M275.875 547.354H276.335L275.475 547.71L275.875 547.354Z" fill="#1D1B29"/>
<path id="Vector_44" d="M308.185 547.354C308.185 547.473 308.105 547.591 308.075 547.71C308.075 547.591 308.145 547.473 308.195 547.354H308.185Z" fill="#1D1B29"/>
<path id="Vector_45" d="M347.045 547.699H346.305L346.195 547.343H346.935L347.045 547.699Z" fill="#1D1B29"/>
<path id="Vector_46" d="M353.905 506.543L353.285 528.751V529.948V530.067L352.975 541.063L345.665 541.322H344.605C334.205 541.682 323.815 541.958 313.435 542.153H310.685H310.595H307.255L302.615 542.217C297.795 542.268 292.985 542.297 288.185 542.304H282.435C287.635 538.829 294.365 534.998 301.605 531.168C304.855 529.441 308.225 527.725 311.605 526.031C320.605 521.521 329.715 517.258 337.145 513.859L338.095 513.428C340.975 512.111 343.585 510.935 345.815 509.942C350.635 507.784 353.695 506.489 353.905 506.403V506.543Z" fill="#1D1B29"/>
<path id="Vector_47" opacity="0.1" d="M287.115 415.274C288.985 419.483 290.915 423.777 294.005 427.058C294.495 427.576 295.345 428.051 295.785 427.479C295.923 427.24 295.989 426.961 295.975 426.68C295.879 424.697 295.254 422.785 294.175 421.177C293.175 419.515 291.995 418.004 291.105 416.278C290.215 414.551 289.195 411.228 287.195 410.774C284.625 410.192 286.545 414.001 287.115 415.274Z" fill="black" fill-opacity="0.97"/>
<path id="Vector_48" opacity="0.1" d="M353.685 306.891C353.545 307.431 353.395 307.97 353.235 308.488C351.389 314.589 348.08 320.054 343.643 324.328C339.207 328.602 333.801 331.532 327.975 332.821C326.895 330.448 325.635 328.764 324.165 328.257C320.165 326.897 343.165 299.694 343.165 299.694C343.895 299.866 348.295 302.985 353.685 306.891Z" fill="black" fill-opacity="0.97"/>
<path id="Vector_49" d="M354.885 296.521C354.885 303.705 352.91 310.727 349.212 316.701C345.513 322.674 340.256 327.329 334.106 330.078C327.955 332.827 321.187 333.547 314.658 332.145C308.128 330.744 302.131 327.284 297.423 322.205C292.716 317.125 289.51 310.653 288.211 303.607C286.913 296.561 287.579 289.258 290.127 282.621C292.674 275.984 296.989 270.312 302.524 266.321C308.059 262.329 314.567 260.199 321.225 260.199C325.647 260.189 330.029 261.122 334.117 262.944C338.205 264.766 341.919 267.441 345.046 270.815C348.174 274.19 350.653 278.198 352.341 282.61C354.029 287.021 354.894 291.749 354.885 296.521V296.521Z" fill="#D38884"/>
<path id="Vector_50" d="M334.135 350.475C334.135 350.475 327.135 359.647 328.255 365.647H336.745L342.955 358.094L334.135 350.475Z" fill="#1D1B29"/>
<path id="Vector_51" opacity="0.1" d="M359.035 311.747L332.335 351.36C332.335 351.36 339.195 361.946 342.465 362.475C345.735 363.003 364.385 315.621 364.385 315.621L359.035 311.747Z" fill="black" fill-opacity="0.97"/>
<path id="Vector_52" d="M359.375 311.035L332.665 350.702C332.665 350.702 339.525 361.277 342.795 361.806C346.065 362.334 364.715 314.963 364.715 314.963L359.375 311.035Z" fill="#A36468"/>
<path id="Vector_53" d="M329.235 361.773C329.235 361.773 327.925 383.981 326.615 388.394C325.305 392.808 326.615 433.349 326.615 433.349L338.875 427.889L336.745 365.647L329.235 361.773Z" fill="#1D1B29"/>
<path id="Vector_54" opacity="0.1" d="M346.935 547.343L347.045 547.699H346.305L346.195 547.343H346.935Z" fill="black" fill-opacity="0.97"/>
<path id="Vector_55" opacity="0.1" d="M447.375 528.222C447.375 528.222 447.145 528.632 446.765 529.301C446.385 529.97 445.975 530.801 445.445 531.858C445.418 531.899 445.394 531.942 445.375 531.988C444.635 533.466 443.755 535.279 442.865 537.254C412.865 538.398 382.865 539.919 352.945 541.009L345.635 541.268H344.575L341.435 529.83V529.711L341.105 528.502L339.105 521.316L337.105 514.01L335.035 506.219L334.275 503.392L334.075 502.68L330.815 490.702L326.395 474.44L327.825 458.923L327.925 457.747L329.215 443.848L329.395 439.726L329.495 437.568V436.953L329.715 431.946L330.375 417.055L330.715 409.436L330.775 408.282L331.455 392.991L333.385 386.743L334.385 383.636L336.605 376.416L337.085 374.636C337.785 371.927 339.195 366.575 340.515 361.428L340.635 360.986L340.725 360.651L341.665 356.993L342.835 352.299C343.275 350.497 343.565 349.213 343.635 348.77C343.745 348.004 345.635 344.616 348.115 340.138C353.115 331.214 360.635 318.081 361.495 313.679C361.498 313.643 361.498 313.607 361.495 313.571C361.546 313.303 361.616 313.039 361.705 312.783C362.115 311.466 362.705 311.11 363.325 311.197C363.607 311.246 363.876 311.36 364.115 311.531C364.717 311.969 365.245 312.517 365.675 313.15C366.845 315.578 369.975 318.006 372.745 319.808L373.285 320.142L373.605 320.347C375.905 321.761 377.765 322.667 377.765 322.667C414.365 346.472 412.085 382.092 414.205 384.909C416.325 387.725 416.495 397.966 416.495 397.966C416.495 397.966 421.885 432.701 424.335 435.734C426.785 438.766 424.505 439.791 426.625 443.147C428.745 446.503 428.255 455.373 428.255 455.373C428.255 455.373 429.725 476.523 434.955 481.109C440.185 485.695 447.375 528.222 447.375 528.222Z" fill="black" fill-opacity="0.97"/>
<path id="Vector_56" d="M448.355 527.876L447.915 528.697C447.565 529.366 447.005 530.423 446.335 531.75L446.265 531.901C445.505 533.423 444.605 535.268 443.715 537.297H442.875C412.875 538.441 382.875 539.962 352.955 541.052L345.645 541.311L342.515 529.83V529.711L342.185 528.502L340.115 520.949L338.115 513.611L336.115 506.284L335.325 503.349L331.905 490.745L327.385 474.138L328.635 460.639L328.805 458.837L330.185 443.503L330.715 431.547L331.365 417.098L331.535 413.31L331.725 408.929L331.805 407.084L332.455 392.646L334.385 386.409L335.215 383.722L337.155 377.409L337.565 376.071C337.565 376.071 339.435 368.982 341.245 361.957C341.315 361.698 341.385 361.439 341.445 361.18C341.605 360.575 341.755 359.971 341.915 359.378C342.075 358.773 342.225 358.18 342.365 357.586C342.875 355.623 343.365 353.788 343.705 352.277C344.195 350.303 344.525 348.867 344.595 348.403C344.705 347.637 346.595 344.152 349.165 339.62C353.895 331.181 360.795 319.117 362.255 314.11C362.333 313.851 362.4 313.588 362.455 313.322V313.322C362.544 312.527 362.846 311.777 363.325 311.164C364.665 309.772 366.655 312.761 366.655 312.761C367.825 315.189 370.955 317.628 373.725 319.419C375.343 320.468 377.012 321.422 378.725 322.279C415.325 346.083 413.045 381.704 415.165 384.531C417.285 387.358 417.455 397.577 417.455 397.577C417.455 397.577 422.845 432.313 425.295 435.345C427.745 438.377 425.465 439.402 427.585 442.748C429.705 446.093 429.215 455.092 429.215 455.092C429.215 455.092 430.685 476.253 435.915 480.839C441.145 485.425 448.355 527.876 448.355 527.876Z" fill="#444053"/>
<path id="Vector_57" opacity="0.1" d="M373.725 320.11C370.135 325.743 364.285 335.649 362.725 342.771C362.725 342.771 357.005 349.126 354.875 348.77C352.745 348.414 356.875 353.529 356.875 353.529L334.405 387.132L337.595 376.805C337.595 376.805 344.295 351.414 344.595 349.126C344.895 346.839 361.165 320.628 362.455 314.035C363.455 308.758 366.655 313.506 366.655 313.506C367.815 315.88 370.945 318.329 373.725 320.11Z" fill="black" fill-opacity="0.97"/>
<path id="Vector_58" d="M373.725 319.409C370.135 325.031 364.285 334.947 362.725 342.015C362.725 342.015 357.005 348.36 354.875 348.015C352.745 347.67 356.875 352.774 356.875 352.774L334.405 386.376L337.595 376.05C337.595 376.05 344.295 350.659 344.595 348.36C344.895 346.062 361.165 319.873 362.455 313.279C363.455 307.992 366.655 312.751 366.655 312.751C367.815 315.178 370.945 317.606 373.725 319.409Z" fill="#444053"/>
<path id="Vector_59" opacity="0.1" d="M403.905 389.031C404.075 396.736 393.615 407.257 393.125 407.872C392.635 408.487 360.605 437.007 360.605 437.007L337.605 456.042C335.012 458.348 331.912 459.894 328.605 460.531L330.175 443.503L331.725 408.972C335.315 404.656 338.795 400.124 338.875 398.678C339.035 395.689 344.875 392.506 344.875 392.506C344.875 392.506 348.965 388.804 348.305 386.689C347.645 384.574 350.475 374.442 350.475 374.442C351.945 345.695 379.395 342.879 379.395 342.879C379.395 342.879 392.635 348.522 401.945 354.511C411.255 360.5 403.745 381.337 403.905 389.031Z" fill="black" fill-opacity="0.97"/>
<path id="Vector_60" opacity="0.1" d="M246.225 452.395L238.225 452.999C234.845 446.794 239.495 430.176 239.495 430.176H240.145L244.235 430.705L246.225 452.395Z" fill="black" fill-opacity="0.97"/>
<path id="Vector_61" d="M379.395 341.13C379.395 341.13 351.945 343.958 350.475 372.694C350.475 372.694 347.695 382.751 348.345 384.866C348.995 386.981 344.915 390.682 344.915 390.682C344.915 390.682 339.035 393.854 338.915 396.854C338.795 399.854 323.915 416.213 323.915 416.213C323.915 416.213 317.715 423.831 303.335 424.63C288.955 425.428 282.255 430.176 282.255 430.176C282.255 430.176 275.255 424.889 270.155 426.475C265.055 428.061 240.255 430.176 240.255 430.176C240.255 430.176 233.665 453.743 241.885 455.222C242.885 455.394 323.785 458.394 323.785 458.394C323.785 458.394 329.315 461.211 337.645 454.337C345.975 447.463 360.645 435.291 360.645 435.291C360.645 435.291 392.645 406.728 393.165 406.156C393.685 405.584 404.165 395.009 403.945 387.315C403.725 379.621 411.305 358.806 401.945 352.785C392.585 346.763 379.395 341.13 379.395 341.13Z" fill="#444053"/>
<path id="Vector_62" opacity="0.1" d="M354.885 296.521C354.888 300.343 354.331 304.142 353.235 307.776C352.779 307.195 352.364 306.578 351.995 305.931C350.435 303.341 348.871 300.751 347.305 298.161C346.087 295.83 344.468 293.772 342.535 292.097C340.535 290.565 337.695 289.939 335.535 291.298C333.635 292.507 332.705 294.978 332.535 297.352C332.476 299.735 332.533 302.119 332.705 304.496C332.785 305.406 332.569 306.317 332.095 307.075C331.385 307.761 330.468 308.144 329.515 308.154L326.515 308.596C326.244 308.699 325.956 308.742 325.67 308.723C325.383 308.704 325.103 308.623 324.845 308.486C324.588 308.348 324.359 308.156 324.172 307.921C323.984 307.686 323.843 307.413 323.755 307.118C321.265 302.251 319.545 296.208 314.875 293.867C311.995 292.421 308.195 292.518 306.345 289.734C305.085 287.835 305.255 285.255 305.625 282.946C306.032 280.342 306.617 277.774 307.375 275.263C307.905 273.493 309.085 269.965 306.465 269.609C304.685 269.361 302.225 271.4 301.325 272.846C300.425 274.292 300.205 276.224 299.565 277.875C298.338 280.716 296.131 282.927 293.415 284.036C292.055 284.639 290.63 285.056 289.175 285.277C291.634 277.035 296.741 270.012 303.575 265.475C310.409 260.937 318.521 259.183 326.448 260.529C334.374 261.876 341.595 266.233 346.807 272.816C352.019 279.4 354.88 287.776 354.875 296.435L354.885 296.521Z" fill="black" fill-opacity="0.97"/>
<path id="Vector_63" d="M301.335 271.929C300.425 273.429 300.215 275.296 299.575 276.947C298.35 279.785 296.147 281.996 293.435 283.108C290.739 284.197 287.882 284.746 285.005 284.727C280.345 284.878 275.145 284.112 272.145 280.259C273.238 279.346 274.155 278.208 274.841 276.912C275.527 275.616 275.97 274.187 276.145 272.706C276.405 270.397 276.055 267.818 277.325 265.929C277.972 265.103 278.742 264.399 279.605 263.847C284.825 259.962 288.945 254.631 293.665 250.056C298.385 245.481 304.075 241.499 310.415 241.283C318.905 241.002 326.415 247.455 334.815 248.675C337.395 249.052 340.055 248.923 342.575 249.624C345.41 250.575 348.078 252.034 350.465 253.941C352.624 255.291 354.533 257.062 356.095 259.163C357.172 260.998 357.947 263.021 358.385 265.141C359.49 269.619 360.16 274.208 360.385 278.835C360.615 283.669 360.385 288.547 360.865 293.359C361.345 298.172 362.765 303.071 365.815 306.632C363.59 307.391 361.313 307.957 359.005 308.326C357.561 308.696 356.047 308.568 354.675 307.959C353.563 307.197 352.654 306.138 352.035 304.884L347.345 297.115C346.127 294.784 344.508 292.725 342.575 291.05C340.575 289.518 337.735 288.892 335.575 290.252C333.675 291.46 332.755 293.931 332.575 296.305C332.516 298.688 332.573 301.072 332.745 303.449C332.825 304.359 332.609 305.271 332.135 306.028C331.422 306.716 330.501 307.099 329.545 307.107L326.545 307.549C326.274 307.652 325.986 307.695 325.7 307.676C325.413 307.657 325.133 307.577 324.875 307.439C324.618 307.301 324.389 307.109 324.202 306.874C324.014 306.639 323.873 306.366 323.785 306.071C321.295 301.194 319.575 295.161 314.905 292.82C312.025 291.374 308.225 291.471 306.375 288.687C305.115 286.788 305.285 284.209 305.655 281.9C306.062 279.295 306.647 276.727 307.405 274.216C307.935 272.447 309.115 268.918 306.495 268.551C304.695 268.346 302.235 270.386 301.335 271.929Z" fill="#444053"/>
<path id="Vector_64" opacity="0.1" d="M377.475 357.252C380.005 356.874 382.665 356.626 385.035 357.673C378.865 354.943 368.825 355.989 363.205 359.745C363.715 361.007 375.515 357.543 377.475 357.252Z" fill="black" fill-opacity="0.97"/>
<path id="Vector_65" opacity="0.1" d="M380.425 366.1C386.575 366.543 392.925 367.471 398.755 365.313C393.875 363.5 388.505 364.644 383.365 364.093C379.265 363.651 375.095 362.119 371.095 363.241C369.425 363.705 363.275 366.759 363.695 368.992C368.946 366.485 374.71 365.488 380.425 366.1V366.1Z" fill="black" fill-opacity="0.97"/>
<path id="Vector_66" opacity="0.1" d="M364.135 380.603C365.422 380.457 366.723 380.604 367.955 381.035C372.568 382.207 377.296 382.768 382.035 382.707C385.655 382.707 389.555 382.114 392.195 379.47L364.135 380.603Z" fill="black" fill-opacity="0.97"/>
<path id="Vector_67" opacity="0.1" d="M344.325 414.368C348.625 416.499 353.354 417.426 358.075 417.065C362.776 416.692 367.42 415.729 371.915 414.195C373.915 413.558 376.095 412.76 377.265 410.882L344.325 414.368Z" fill="black" fill-opacity="0.97"/>
<path id="Vector_68" opacity="0.1" d="M388.595 419.116C397.951 424.89 408.371 428.371 419.115 429.313C413.695 426.968 408.235 424.749 402.735 422.655C397.109 420.528 391.342 418.862 385.485 417.67C386.598 417.929 387.655 418.42 388.595 419.116Z" fill="black" fill-opacity="0.97"/>
<path id="Vector_69" opacity="0.1" d="M403.705 412.933C405.584 413.271 407.492 413.383 409.395 413.267C410.395 413.267 411.585 413.116 412.175 412.188C407.885 412.382 403.655 411.195 399.465 410.17C398.275 409.868 396.135 409.156 395.135 409.922C397.035 411.389 401.305 412.415 403.705 412.933Z" fill="black" fill-opacity="0.97"/>
<path id="Vector_70" opacity="0.1" d="M429.495 509.327C431.745 513.492 434.025 517.701 437.135 521.197C438.932 523.104 440.846 524.877 442.865 526.506C439.155 516.298 435.385 506.004 429.445 497.08C427.945 494.835 425.705 491.619 422.975 491.209C422.195 493.702 424.165 498.115 425.115 500.457C426.419 503.5 427.881 506.462 429.495 509.327V509.327Z" fill="black" fill-opacity="0.97"/>
<path id="Vector_71" opacity="0.1" d="M320.165 432.993C319.995 434.719 319.865 436.629 320.795 438.043C321.255 438.74 321.927 439.24 322.695 439.456C322.215 439.327 321.695 434.255 321.575 433.565C321.355 432.151 321.575 429.507 320.645 428.461C320.405 429.95 320.315 431.482 320.165 432.993Z" fill="black" fill-opacity="0.97"/>
<path id="Vector_72" opacity="0.1" d="M325.365 431.007C325.695 432.527 326.309 433.959 327.168 435.215C328.028 436.471 329.115 437.525 330.365 438.313C328.615 435.982 328.045 432.917 326.525 430.36C326.035 429.54 325.465 428.363 324.525 428.202C324.761 429.151 325.042 430.088 325.365 431.007V431.007Z" fill="black" fill-opacity="0.97"/>
<path id="Vector_73" opacity="0.1" d="M320.965 399.93C319.489 400.877 317.848 401.485 316.145 401.717C314.441 401.949 312.712 401.8 311.065 401.278C310.315 401.041 308.565 400.199 308.985 399.012C309.405 397.825 311.435 398.646 312.265 398.753L316.615 399.347C317.415 399.455 320.315 400.34 320.965 399.93Z" fill="black" fill-opacity="0.97"/>
<path id="Vector_74" opacity="0.1" d="M306.245 407.613C308.295 407.332 310.135 408.864 312.055 409.695C314.179 410.46 316.419 410.782 318.655 410.645C319.775 410.645 321.045 410.548 321.735 409.566C316.525 408.282 311.655 406.868 306.245 407.613Z" fill="black" fill-opacity="0.97"/>
<path id="Vector_75" d="M330.965 342.727H331.295L333.745 352.234L330.965 355.428V342.727Z" fill="#A36468"/>
<g id="Group" opacity="0.1">
<path id="Vector_76" opacity="0.1" d="M276.785 267.354C276.481 268.897 276.33 270.47 276.335 272.048C276.459 271.552 276.549 271.047 276.605 270.537C276.725 269.501 276.715 268.411 276.785 267.354Z" fill="black" fill-opacity="0.97"/>
<path id="Vector_77" opacity="0.1" d="M306.615 268.584C306.857 268.599 307.094 268.668 307.311 268.787C307.527 268.907 307.718 269.073 307.872 269.275C308.026 269.478 308.14 269.713 308.206 269.965C308.271 270.218 308.288 270.482 308.255 270.742C308.725 268.951 308.985 266.749 306.945 266.426C305.165 266.188 302.705 268.228 301.805 269.717C300.905 271.206 300.685 273.094 300.045 274.745C298.822 277.586 296.618 279.797 293.905 280.907C291.209 281.996 288.352 282.544 285.475 282.525C281.235 282.666 276.545 282.029 273.475 279.008C273.107 279.429 272.709 279.819 272.285 280.173C275.285 284.025 280.485 284.792 285.155 284.64C288.029 284.658 290.883 284.11 293.575 283.022C296.289 281.91 298.496 279.699 299.725 276.86C300.365 275.209 300.565 273.342 301.475 271.843C302.385 270.343 304.835 268.346 306.615 268.584Z" fill="black" fill-opacity="0.97"/>
<path id="Vector_78" opacity="0.1" d="M359.435 306.201C357.991 306.57 356.477 306.442 355.105 305.834C353.996 305.068 353.087 304.009 352.465 302.758C350.905 300.168 349.341 297.579 347.775 294.989C346.563 292.656 344.947 290.597 343.015 288.924C341.015 287.381 338.165 286.766 336.015 288.126C334.105 289.334 333.185 291.806 332.965 294.18C332.965 294.277 332.965 294.374 332.965 294.471C333.327 292.73 334.307 291.211 335.695 290.241C337.825 288.881 340.695 289.507 342.695 291.039C344.625 292.718 346.244 294.775 347.465 297.104C349.025 299.694 350.588 302.283 352.155 304.873C352.771 306.129 353.681 307.19 354.795 307.949C356.163 308.557 357.675 308.685 359.115 308.316C361.426 307.946 363.706 307.379 365.935 306.621C365.495 306.108 365.087 305.564 364.715 304.992C362.98 305.514 361.216 305.918 359.435 306.201Z" fill="black" fill-opacity="0.97"/>
<path id="Vector_79" opacity="0.1" d="M332.545 303.902C331.831 304.582 330.916 304.964 329.965 304.981L326.965 305.424C326.694 305.526 326.406 305.57 326.12 305.551C325.833 305.532 325.553 305.451 325.295 305.313C325.038 305.175 324.809 304.983 324.622 304.748C324.434 304.513 324.293 304.24 324.205 303.945C321.715 299.068 319.995 293.036 315.325 290.694C312.445 289.248 308.655 289.345 306.805 286.561C305.866 284.862 305.548 282.845 305.915 280.907C305.865 281.241 305.795 281.565 305.745 281.889C305.385 284.198 305.205 286.777 306.475 288.676C308.325 291.46 312.125 291.363 314.995 292.809C319.675 295.151 321.395 301.183 323.885 306.06C324.112 306.673 324.515 307.191 325.035 307.539C325.554 307.726 326.112 307.752 326.645 307.614L329.645 307.172C330.598 307.162 331.515 306.779 332.225 306.093C332.704 305.338 332.92 304.424 332.835 303.514V303.514C332.747 303.651 332.65 303.781 332.545 303.902Z" fill="black" fill-opacity="0.97"/>
</g>
<path id="Vector_80" d="M746.435 558.35L740.025 557.389V455.276L741.335 455.707L745.335 457.035V460.434V462.991V466.865L745.385 471.3L745.475 480.429V481.346V482.566V485.156V486.72V490.508V492.882L745.955 538.862V540.092L746.125 556.278V556.526L746.435 558.35Z" fill="#EAECF0"/>
<path id="Vector_81" d="M750.035 558.889L746.465 558.35V556.505V556.256L746.295 540.07V538.84L745.815 492.86V490.486V486.699V485.134V482.544V481.325V480.408L745.725 471.279L745.675 466.844V462.97V460.412V457.013H749.525V460.768V463.337V466.293V470.21L749.605 480.073V482.231V484.487V486.062V487.994V490.508L749.975 538.764V540.005L750.095 556.051V556.31L750.035 558.889Z" fill="#D3DAE1"/>
<path id="Vector_82" d="M1139.03 442.618V530.758C1137.13 532.196 1135.19 533.61 1133.19 534.998L1133.11 461.621V453.83L1139.03 442.618Z" fill="#EAECF0"/>
<path id="Vector_83" d="M1143.19 441.345V527.348C1141.83 528.524 1140.44 529.657 1139.03 530.768V442.618L1143.19 441.345Z" fill="#D3DAE1"/>
<path id="Vector_84" d="M1050.33 566.249C1047.87 566.788 1045.4 567.328 1042.93 567.792L1042.84 488.037V484.584L1049.97 481.346V488.663L1050.33 566.249Z" fill="#EAECF0"/>
<path id="Vector_85" d="M1055.03 478.821V565.148C1053.47 565.515 1051.91 565.86 1050.35 566.227L1050.02 488.673V481.357L1050.49 481.12L1055.03 478.821Z" fill="#D3DAE1"/>
<path id="Vector_86" d="M631.185 542.358L624.535 541.635L623.685 451.704V449.136V447.42H630.215V449.74V452.308L631.185 542.358Z" fill="#EAECF0"/>
<path id="Vector_87" d="M636.135 542.93L631.135 542.358L630.135 452.308V449.74V447.42H635.185V450.215V452.783L636.135 542.93Z" fill="#D3DAE1"/>
<path id="Vector_88" opacity="0.1" d="M1050.44 481.131L1055.01 478.811V489.699L1050.56 491.306L1050.44 481.131Z" fill="black" fill-opacity="0.97"/>
<path id="Vector_89" opacity="0.1" d="M1143.18 441.323V457.984L1139.03 459.484L1133.1 461.61L1133.09 453.819L1139.03 442.607L1143.18 441.323Z" fill="black" fill-opacity="0.97"/>
<path id="Vector_90" d="M1143.18 409.296V455.427L1050.56 488.738L1049.96 439.403L1143.18 409.296Z" fill="#D48A9B"/>
<path id="Vector_91" d="M622.455 406.091L744.175 381.1L1143.18 409.296L1049.96 439.403L622.455 406.091Z" fill="#EFC6CD"/>
<path id="Vector_92" opacity="0.1" d="M635.225 447.42L635.265 452.772L630.225 452.298L623.675 451.693L623.645 447.42H635.225Z" fill="black" fill-opacity="0.97"/>
<path id="Vector_93" opacity="0.1" d="M749.275 463.347L745.425 462.98L740.025 462.484V455.276L745.365 457.024H749.225L749.275 463.347Z" fill="black" fill-opacity="0.97"/>
<path id="Vector_94" d="M622.455 406.091V449.017L1050.56 488.738L1049.96 439.402L622.455 406.091Z" fill="#D48A9B"/>
<path id="Vector_95" d="M961.895 457.132H905.975V435.237L961.895 439.489V457.132Z" fill="#D48A9B"/>
<path id="Vector_96" opacity="0.1" d="M961.895 457.132H905.975V435.237L961.895 439.489V457.132Z" fill="black" fill-opacity="0.97"/>
<path id="Vector_97" opacity="0.1" d="M830.865 430.435V465.031L1045.51 482.652V445.812L961.795 440.687L953.475 448.693L919.335 446.136L907.165 436.521L830.865 430.435Z" fill="black" fill-opacity="0.97"/>
<path id="Vector_98" d="M829.675 429.151V463.757L1044.32 481.368V444.528L960.605 439.403L952.295 447.42L918.145 444.852L905.975 435.237L829.675 429.151Z" fill="white"/>
<path id="Vector_99" d="M697.265 419.86L748.035 423.713L747.445 441.118H714.295L692.125 431.719L697.265 419.86Z" fill="#D48A9B"/>
<path id="Vector_100" opacity="0.1" d="M697.265 419.86L748.035 423.713L747.445 441.118H714.295L692.125 431.719L697.265 419.86Z" fill="black" fill-opacity="0.97"/>
<path id="Vector_101" opacity="0.1" d="M629.585 415.058V446.136L824.335 462.797V429.799L749.225 424.986L741.205 431.396L710.925 429.475L698.455 421.144L629.585 415.058Z" fill="black" fill-opacity="0.97"/>
<path id="Vector_102" d="M628.395 413.774V444.852L823.145 461.513V428.515L748.035 423.713L740.025 430.112L709.735 428.191L697.265 419.86L628.395 413.774Z" fill="white"/>
<path id="Vector_103" opacity="0.1" d="M1045.53 413.893L1072.83 415.825L1027.6 430.435L1004.56 428.644L1045.53 413.893Z" fill="black" fill-opacity="0.97"/>
<path id="Vector_104" d="M1045.53 412.62L1072.83 414.54L1027.6 429.151L1004.56 427.36L1045.53 412.62Z" fill="white"/>
<path id="Vector_105" d="M1042.27 415.932C1043.35 415.425 1044.5 416.364 1045.65 416.601C1046.3 416.742 1046.98 416.601 1047.65 416.742C1048.99 416.936 1050.31 417.896 1051.59 417.411L1042.27 415.932Z" fill="#D3DAE1"/>
<path id="Vector_106" d="M1040.86 416.807C1041.93 416.31 1043.08 417.249 1044.23 417.486C1044.89 417.616 1045.57 417.486 1046.23 417.616C1047.56 417.81 1048.89 418.781 1050.17 418.296L1040.86 416.807Z" fill="#D3DAE1"/>
<path id="Vector_107" d="M1037.62 418.576C1038.69 418.08 1039.84 419.008 1040.99 419.245C1041.65 419.386 1042.32 419.245 1042.99 419.386C1044.33 419.58 1045.66 420.551 1046.93 420.055L1037.62 418.576Z" fill="#D3DAE1"/>
<path id="Vector_108" opacity="0.1" d="M861.345 397.728L922.215 402.034L909.245 422.137L842.325 414.422L861.345 397.728Z" fill="black" fill-opacity="0.97"/>
<path id="Vector_109" d="M860.155 396.444L921.025 400.739L908.055 420.853L841.125 413.138L860.155 396.444Z" fill="#3A3768"/>
<path id="Vector_110" d="M862.835 397.923L915.925 401.43L904.615 417.81L846.245 411.519L862.835 397.923Z" fill="#D5E1F4"/>
<path id="Vector_111" d="M827.235 562.202C827.235 562.504 827.235 562.817 827.185 563.119C827.135 563.421 827.185 563.659 827.105 563.929C826.892 565.83 826.402 567.684 825.655 569.421V569.421C800.505 566.367 775.295 562.698 750.055 558.932L746.485 558.393L740.074 557.433L734.675 556.623C728.764 556.463 722.87 555.868 717.035 554.843C713.358 554.256 709.718 553.427 706.134 552.361C690.134 549.998 674.044 547.721 658.004 545.649L655.915 545.379C656.295 543.545 656.615 542.433 656.615 542.433C656.615 542.433 660.055 527.844 662.915 511.539C663.545 508 664.145 504.396 664.665 500.824C665.085 497.964 665.465 495.137 665.785 492.418C665.965 490.918 666.115 489.45 666.245 488.015C666.315 487.303 666.375 486.591 666.425 485.857C666.475 485.123 666.535 484.325 666.585 483.58C666.635 482.836 666.655 482.177 666.685 481.498V480.483C666.685 479.026 666.684 477.505 666.634 475.94C666.128 468.147 664.991 460.416 663.235 452.837C662.955 451.542 662.665 450.247 662.365 448.985C662.275 448.575 662.174 448.175 662.074 447.776C658.844 434.277 655.074 423.249 655.074 423.249C655.07 423.188 655.07 423.126 655.074 423.065C655.079 423.022 655.079 422.979 655.074 422.936C655.079 422.846 655.079 422.756 655.074 422.666C655.074 422.321 655.074 421.792 655.074 421.155C655.074 421.026 655.074 420.885 655.074 420.745C655.148 419.613 655.329 418.492 655.615 417.4C655.723 417.012 655.85 416.63 655.995 416.256C656.352 415.171 656.948 414.195 657.732 413.413C658.515 412.631 659.464 412.066 660.495 411.767V411.767C663.325 410.979 667.605 411.767 674.065 415.9C675.117 416.556 676.12 417.299 677.065 418.123C677.545 418.533 678.065 418.965 678.465 419.429C685.865 426.864 689.805 439.133 691.905 450.334C691.985 450.733 692.055 451.132 692.125 451.531C692.375 452.913 692.585 454.261 692.775 455.589C693.115 457.92 693.385 460.164 693.585 462.247C693.585 462.808 693.695 463.326 693.745 463.898C693.795 464.47 693.845 464.977 693.875 465.495C694.005 467.178 694.095 468.732 694.155 470.048C694.325 473.545 694.295 475.692 694.295 475.692V475.8C694.295 475.8 694.295 475.962 694.245 476.264C694.239 476.292 694.239 476.322 694.245 476.35C694.245 476.48 694.245 476.642 694.245 476.825C694.245 477.009 694.245 477.138 694.245 477.321C694.205 477.775 694.155 478.303 694.095 478.908C694.005 479.836 693.905 480.926 693.785 482.145C693.705 483.051 693.604 484.033 693.504 485.069C693.284 487.227 693.045 489.731 692.785 492.364C692.725 492.86 692.675 493.357 692.625 493.853C692.395 496.108 692.155 498.461 691.905 500.835C691.635 503.532 691.335 506.23 691.045 508.895C690.975 509.478 690.905 510.061 690.845 510.633C690.105 517.107 689.364 522.988 688.764 526.646C688.67 527.189 688.604 527.736 688.565 528.287C688.555 528.473 688.555 528.661 688.565 528.848C688.534 529.336 688.534 529.827 688.565 530.315C689.055 539.531 698.285 541.106 698.285 541.106L740.194 540.21L746.415 540.081L750.035 540.005L782.704 539.304L785.704 539.239L801.954 538.894C803.057 538.866 804.159 539.008 805.225 539.315C810.242 540.769 815.029 543.028 819.425 546.016C820.798 546.967 822.034 548.131 823.095 549.469C823.146 549.521 823.193 549.579 823.235 549.642C825.451 552.508 826.82 556.027 827.165 559.742C827.165 559.99 827.165 560.238 827.165 560.486C827.245 561.004 827.245 561.587 827.235 562.202Z" fill="#3A3768"/>
<path id="Vector_112" opacity="0.1" d="M827.235 562.202C827.235 562.504 827.235 562.817 827.185 563.119C827.135 563.421 827.185 563.659 827.105 563.929C826.866 565.831 826.36 567.683 825.605 569.421C800.455 566.367 775.245 562.698 750.005 558.932L746.435 558.393L740.025 557.433L734.625 556.623C728.714 556.463 722.82 555.868 716.985 554.843C713.308 554.256 709.668 553.427 706.085 552.361C690.085 549.998 673.995 547.721 657.955 545.649L655.865 545.379C656.245 543.48 656.585 542.325 656.585 542.325C656.585 542.325 659.395 530.455 662.065 516.071C662.255 515.079 662.435 514.086 662.615 513.082L662.885 511.561C663.505 508.032 664.105 504.406 664.635 500.845C665.055 497.986 665.435 495.159 665.755 492.439C665.935 490.939 666.085 489.472 666.215 488.037C666.285 487.325 666.345 486.612 666.395 485.879C666.445 485.145 666.505 484.346 666.555 483.602C666.605 482.857 666.625 482.199 666.655 481.519V480.505C666.655 479.048 666.655 477.526 666.605 475.962C666.113 468.169 664.986 460.438 663.235 452.859C662.955 451.549 662.665 450.265 662.365 449.006C662.265 448.596 662.175 448.197 662.075 447.798C658.835 434.255 655.075 423.162 655.075 423.162C655.077 423.137 655.077 423.112 655.075 423.087C655.079 423.044 655.079 423 655.075 422.957C655.079 422.867 655.079 422.777 655.075 422.688C655.075 422.342 655.075 421.813 655.075 421.177C655.075 421.047 655.075 420.907 655.075 420.767C655.138 419.636 655.309 418.515 655.585 417.422C655.695 417.044 655.815 416.655 655.955 416.278C656.314 415.133 656.938 414.105 657.768 413.291C658.597 412.478 659.604 411.905 660.695 411.627C663.525 410.915 667.755 411.8 674.075 415.792C675.17 416.487 676.213 417.273 677.195 418.145V418.145C677.665 418.565 678.115 418.986 678.555 419.439C685.895 426.918 689.805 439.165 691.885 450.334C691.965 450.733 692.035 451.143 692.105 451.542C692.355 452.913 692.565 454.272 692.755 455.589C693.095 457.92 693.355 460.153 693.555 462.225C693.605 462.797 693.665 463.358 693.705 463.898C693.745 464.437 693.805 464.977 693.835 465.495C693.965 467.178 694.055 468.732 694.115 470.048C694.285 473.545 694.255 475.692 694.255 475.692V476.059C694.255 476.124 694.255 476.188 694.255 476.264C694.249 476.292 694.249 476.322 694.255 476.35C694.255 476.48 694.255 476.642 694.255 476.825C694.255 477.009 694.255 477.138 694.255 477.321C694.215 477.775 694.165 478.303 694.105 478.908C694.015 479.836 693.915 480.926 693.795 482.145C693.695 483.041 693.605 484.023 693.505 485.069C693.285 487.227 693.045 489.731 692.785 492.364C692.725 492.86 692.675 493.357 692.625 493.853C692.395 496.108 692.145 498.482 691.905 500.856C691.615 503.554 691.325 506.252 691.025 508.906C690.955 509.489 690.895 510.072 690.825 510.643C690.095 517.118 689.365 522.913 688.765 526.549C688.666 527.131 688.599 527.718 688.565 528.308C688.555 528.495 688.555 528.682 688.565 528.869C688.534 529.358 688.534 529.848 688.565 530.337C689.135 539.444 698.285 540.966 698.285 540.966L740.195 540.081L746.405 539.941L750.035 539.865L782.765 539.174L785.825 539.11L802.015 538.764C803.118 538.726 804.22 538.868 805.285 539.185C810.34 540.599 815.165 542.837 819.595 545.822C820.991 546.786 822.246 547.972 823.315 549.339C823.366 549.392 823.413 549.45 823.455 549.512C825.67 552.391 827.023 555.928 827.335 559.655C827.335 559.904 827.335 560.152 827.335 560.4C827.245 561.004 827.245 561.587 827.235 562.202Z" fill="black" fill-opacity="0.97"/>
<path id="Vector_113" d="M827.305 569.583L825.655 569.378C800.505 566.324 775.295 562.655 750.055 558.889L746.485 558.35L740.075 557.389L734.675 556.58C728.764 556.42 722.87 555.825 717.035 554.8C713.358 554.213 709.718 553.384 706.135 552.318C690.135 549.955 674.045 547.678 658.005 545.606C658.265 544.092 658.599 542.593 659.005 541.117C659.005 541.117 668.505 500.748 669.095 479.285C669.305 471.613 667.895 462.117 665.985 453.064C665.705 451.758 665.425 450.463 665.125 449.19L664.855 447.981C661.465 433.791 657.435 421.921 657.435 421.921C657.34 420.453 657.417 418.977 657.665 417.529C657.727 417.14 657.807 416.755 657.905 416.375C658.288 414.566 659.191 412.935 660.485 411.713C660.544 411.657 660.607 411.606 660.675 411.562C663.305 409.404 668.025 409.253 676.425 414.562C678.126 415.646 679.701 416.946 681.115 418.436C681.515 418.846 681.915 419.278 682.295 419.72C689.045 427.608 692.625 439.694 694.505 450.506L694.715 451.704C694.935 453.053 695.125 454.38 695.305 455.664C695.305 455.664 695.305 455.74 695.305 455.772C695.535 457.477 695.725 459.107 695.885 460.66C696.353 465.237 696.593 469.836 696.605 474.44C696.605 474.44 696.215 478.703 695.605 484.843C695.375 487.249 695.105 489.947 694.815 492.795C694.815 492.936 694.815 493.076 694.815 493.227L694.665 494.738C694.155 499.712 693.595 505.021 693.025 509.942C692.965 510.546 692.895 511.14 692.825 511.723C692.185 517.258 691.545 522.179 691.015 525.384C688.935 537.88 700.515 539.8 700.515 539.8L740.055 538.959L746.255 538.829L749.885 538.743H751.405H751.895L783.255 538.074H786.255L804.255 537.685C805.358 537.655 806.46 537.801 807.525 538.117C812.581 539.53 817.41 541.764 821.845 544.743C823.088 545.609 824.22 546.646 825.215 547.829C825.277 547.896 825.333 547.968 825.385 548.045C827.735 550.976 829.183 554.624 829.527 558.483C829.871 562.342 829.094 566.221 827.305 569.583Z" fill="#3A3768"/>
<path id="Vector_114" d="M968.665 374.528L980.895 402.8H978.845L964.505 374.863L968.665 374.528Z" fill="#101012"/>
<path id="Vector_115" opacity="0.1" d="M968.665 374.528L980.895 402.8H978.845L964.505 374.863L968.665 374.528Z" fill="black" fill-opacity="0.97"/>
<path id="Vector_116" d="M968.665 402.8H980.895V405.757L968.665 406.091V402.8Z" fill="#101012"/>
<path id="Vector_117" opacity="0.1" d="M968.665 402.8H980.895V405.757L968.665 406.091V402.8Z" fill="black" fill-opacity="0.97"/>
<path id="Vector_118" d="M873.535 270.494V369.219C873.535 371.162 874.25 373.026 875.523 374.4C876.797 375.774 878.524 376.546 880.325 376.546H1032.82C1033.72 376.546 1034.61 376.353 1035.44 375.978C1036.27 375.604 1037.02 375.055 1037.64 374.363C1038.27 373.672 1038.77 372.852 1039.1 371.952C1039.43 371.052 1039.59 370.09 1039.57 369.122L1037.84 270.31C1037.81 268.403 1037.08 266.586 1035.82 265.25C1034.56 263.914 1032.86 263.166 1031.09 263.167H880.325C879.433 263.167 878.55 263.356 877.726 263.724C876.902 264.093 876.154 264.632 875.523 265.313C874.893 265.993 874.393 266.801 874.051 267.69C873.71 268.579 873.535 269.532 873.535 270.494V270.494Z" fill="#101012"/>
<path id="Vector_119" opacity="0.1" d="M873.535 270.494V369.219C873.535 371.162 874.25 373.026 875.523 374.4C876.797 375.774 878.524 376.546 880.325 376.546H1032.82C1033.72 376.546 1034.61 376.353 1035.44 375.978C1036.27 375.604 1037.02 375.055 1037.64 374.363C1038.27 373.672 1038.77 372.852 1039.1 371.952C1039.43 371.052 1039.59 370.09 1039.57 369.122L1037.84 270.31C1037.81 268.403 1037.08 266.586 1035.82 265.25C1034.56 263.914 1032.86 263.166 1031.09 263.167H880.325C879.433 263.167 878.55 263.356 877.726 263.724C876.902 264.093 876.154 264.632 875.523 265.313C874.893 265.993 874.393 266.801 874.051 267.69C873.71 268.579 873.535 269.532 873.535 270.494V270.494Z" fill="black" fill-opacity="0.97"/>
<path id="Vector_120" d="M868.035 270.494V369.219C868.035 371.162 868.75 373.026 870.023 374.4C871.297 375.774 873.024 376.546 874.825 376.546H1027.32C1028.22 376.546 1029.11 376.353 1029.94 375.978C1030.76 375.603 1031.51 375.054 1032.14 374.363C1032.77 373.671 1033.26 372.851 1033.59 371.952C1033.92 371.052 1034.08 370.09 1034.06 369.122L1032.33 270.31C1032.3 268.405 1031.58 266.59 1030.32 265.254C1029.06 263.919 1027.36 263.169 1025.59 263.167H874.865C873.97 263.161 873.082 263.346 872.254 263.712C871.425 264.078 870.672 264.616 870.037 265.297C869.403 265.978 868.899 266.788 868.555 267.68C868.211 268.572 868.035 269.528 868.035 270.494V270.494Z" fill="#101012"/>
<path id="Vector_121" d="M874.035 276.666V363.586C874.035 365.529 874.75 367.393 876.023 368.767C877.297 370.141 879.024 370.913 880.825 370.913H1022.03C1023.82 370.913 1025.54 370.146 1026.81 368.78C1028.07 367.414 1028.78 365.561 1028.78 363.629V276.612C1028.78 274.682 1028.07 272.832 1026.8 271.469C1025.54 270.105 1023.82 269.339 1022.03 269.339H880.825C879.024 269.339 877.297 270.111 876.023 271.485C874.75 272.859 874.035 274.723 874.035 276.666V276.666Z" fill="#6C63FF"/>
<path id="Vector_122" d="M935.135 374.927L948.545 402.8H978.845L963.695 370.913L935.135 374.927Z" fill="#101012"/>
<path id="Vector_123" d="M924.455 402.8L922.215 405.757H968.665V402.8H924.455Z" fill="#101012"/>
<path id="Vector_124" d="M725.452 286.338C726.271 291.116 727.092 295.901 728.595 300.46C728.603 300.492 728.613 300.522 728.625 300.555C728.64 300.6 728.657 300.651 728.675 300.719C728.485 300.646 728.312 300.532 728.165 300.384C727.869 300.045 727.654 299.634 727.535 299.186C726.007 294.593 725.174 289.784 724.343 284.987C723.329 279.135 722.318 273.301 720.055 267.893C719.399 266.496 718.828 265.054 718.345 263.577C718.253 263.265 718.176 262.948 718.115 262.627L718.345 262.476L718.595 262.368L718.845 262.293L719.095 262.228C719.149 263.182 719.303 264.127 719.555 265.044C720.035 266.519 720.599 267.961 721.245 269.361C723.461 274.731 724.456 280.529 725.452 286.338Z" fill="url(#paint1_linear)"/>
<path id="Vector_125" d="M762.035 306.136C760.46 308.049 759.165 310.211 758.195 312.546C758.045 312.902 757.895 313.247 757.755 313.625C753.335 324.415 751.835 339.684 751.835 339.684C751.835 339.684 749.095 338.357 745.215 336.285C737.985 332.422 726.825 325.991 722.315 320.865C720.315 318.545 719.595 316.495 721.255 315.06C721.615 314.747 721.985 314.391 722.355 313.981C723.633 312.601 724.801 311.107 725.845 309.513C727.285 307.355 728.705 304.949 730.045 302.478C730.835 301.032 731.585 299.575 732.285 298.161L732.565 297.6C735.565 291.46 737.755 286.216 737.755 286.216C737.755 286.216 738.755 286.561 740.375 287.176C747.845 290.057 768.415 298.809 762.035 306.136Z" fill="#EFB7B9"/>
<path id="Vector_126" d="M898.915 556.148C898.915 556.148 900.135 565.925 901.685 576.241L898.135 576.047C888.641 575.514 879.138 574.835 869.625 574.007C864.225 560.508 858.625 544.484 858.625 544.235C858.625 543.987 858.455 538.71 858.265 532.819C858.205 530.747 858.135 528.61 858.075 526.603C857.975 523.56 857.885 520.819 857.835 519.114C857.835 517.949 857.775 517.258 857.775 517.258C857.775 517.258 852.635 518.229 848.015 518.909L845.965 519.201C844.905 519.341 843.965 519.449 843.115 519.514C842.382 519.634 841.637 519.634 840.905 519.514C839.325 518.855 842.605 502.248 842.605 502.248L850.765 480.936L853.045 475.001L854.045 474.732C854.535 474.602 855.195 474.451 855.985 474.289C863.775 472.746 884.585 470.782 888.115 492.947C892.485 520.323 893.115 526.474 893.115 526.474L898.915 556.148Z" fill="#EFB7B9"/>
<path id="Vector_127" opacity="0.05" d="M898.915 556.148C898.915 556.148 900.135 565.925 901.685 576.241L898.135 576.047C888.641 575.514 879.138 574.835 869.625 574.007C864.225 560.508 858.625 544.484 858.625 544.235C858.625 543.987 858.455 538.71 858.265 532.819C858.205 530.747 858.135 528.61 858.075 526.603C857.975 523.56 857.885 520.819 857.835 519.114C857.835 517.949 857.775 517.258 857.775 517.258C857.775 517.258 852.635 518.229 848.015 518.909L845.965 519.201C844.905 519.341 843.965 519.449 843.115 519.514C842.382 519.634 841.637 519.634 840.905 519.514C839.325 518.855 842.605 502.248 842.605 502.248L850.765 480.936L853.045 475.001L854.045 474.732C854.535 474.602 855.195 474.451 855.985 474.289C863.775 472.746 884.585 470.782 888.115 492.947C892.485 520.323 893.115 526.474 893.115 526.474L898.915 556.148Z" fill="black" fill-opacity="0.97"/>
<path id="Vector_128" d="M898.135 576.047C888.641 575.514 879.138 574.835 869.625 574.007L866.025 573.694L864.435 573.554C859.955 561.889 855.975 550.483 855.975 550.278C855.975 550.073 855.805 544.753 855.615 538.862C855.385 531.502 855.125 523.301 855.125 523.301L854.455 523.42L854.175 523.474H854.055H853.815L852.205 523.765L851.325 523.916C849.735 524.197 847.815 524.51 845.935 524.801L845.515 524.866L844.415 525.017L843.415 525.146C842.645 525.254 841.915 525.341 841.255 525.405L840.445 525.481C839.713 525.607 838.967 525.607 838.235 525.481C836.655 524.823 839.935 508.216 839.935 508.216L850.375 480.969L850.735 480.861C851.285 480.71 852.445 480.418 854.015 480.127C854.605 480.019 855.255 479.911 855.955 479.814C865.015 478.562 882.255 478.918 885.445 498.914C889.815 526.29 890.445 532.441 890.445 532.441L896.275 562.202C896.275 562.202 897.035 568.353 898.135 576.047Z" fill="#EFB7B9"/>
<path id="Vector_129" opacity="0.1" d="M855.615 538.862C855.385 531.502 855.125 523.29 855.125 523.29C855.125 523.29 845.125 525.179 840.465 525.546L841.405 522.114C841.405 522.114 858.525 517.01 858.885 519.891C859.145 521.909 856.945 532.635 855.615 538.862Z" fill="black" fill-opacity="0.97"/>
<path id="Vector_130" opacity="0.1" d="M855.975 474.235V482.037C855.975 482.037 855.124 496.065 848.444 517.528C848.304 517.992 848.155 518.445 847.995 518.899C847.294 520.963 846.466 522.975 845.514 524.92C843.634 525.2 841.815 525.438 840.465 525.546C839.732 525.667 838.987 525.667 838.254 525.546C836.674 524.887 839.944 508.28 839.944 508.28L850.384 481.044L850.754 480.936L853.025 474.991C853.025 474.991 854.145 474.602 855.975 474.235Z" fill="black" fill-opacity="0.97"/>
<path id="Vector_131" d="M854.035 473.005V482.037C854.035 482.037 853.185 496.065 846.505 517.539C846.335 518.1 846.145 518.618 845.955 519.19C845.765 519.762 845.515 520.442 845.265 521.046C844.715 522.481 844.095 523.873 843.445 525.211C838.215 535.905 830.245 543.556 825.185 547.764C824.445 548.379 823.755 548.919 823.185 549.372H823.135C822.135 550.106 821.415 550.634 820.955 550.947C820.495 551.26 820.455 551.282 820.455 551.282C815.715 548.142 802.245 547.613 802.245 547.613L770.805 553.774C763.932 555.051 756.997 555.902 750.035 556.321L746.465 556.505C744.405 556.591 742.265 556.645 740.075 556.656C738.305 556.656 736.505 556.656 734.675 556.58C728.764 556.42 722.87 555.825 717.035 554.8C713.825 554.231 710.646 553.471 707.515 552.523C705.281 551.855 703.082 551.063 700.925 550.149C678.925 540.825 684.655 518.715 688.365 509.144C688.565 508.636 688.755 508.172 688.935 507.741C689.755 505.788 690.365 504.644 690.365 504.644L691.825 500.835L694.215 494.587L694.745 493.216L694.895 492.817L696.665 488.188L721.665 484.692L740.035 482.123L745.625 481.346L749.415 480.818L756.645 479.803L759.365 479.426C761.042 479.145 762.737 479.001 764.435 478.994C765.352 478.948 766.269 479.094 767.135 479.426C769.135 480.408 784.375 477.721 784.375 477.721C784.375 477.721 796.265 473.793 806.705 475.099C811.867 475.483 817.048 475.519 822.215 475.206V475.206L823.495 475.142L825.155 475.066H825.515C839.035 474.386 854.035 473.005 854.035 473.005Z" fill="#444053"/>
<path id="Vector_132" opacity="0.1" d="M764.085 500.112C764.085 500.112 752.085 529.581 751.585 530.099C751.085 530.617 751.105 539.811 751.585 539.272C752.065 538.732 768.705 498.935 768.705 498.935L764.085 500.112Z" fill="black" fill-opacity="0.97"/>
<path id="Vector_133" opacity="0.1" d="M822.225 475.185C822.225 475.185 816.155 479.415 814.335 482.825C812.515 486.235 795.885 520.15 791.765 525.125C788.343 529.575 785.257 534.313 782.535 539.293C782.055 540.189 782.055 545.822 784.965 540.448C787.875 535.074 787.155 534.168 792.855 527.499C798.555 520.83 804.855 505.755 807.295 502.745C809.735 499.734 813.125 490.691 817.375 485.317L825.515 475.055L822.225 475.185Z" fill="black" fill-opacity="0.97"/>
<path id="Vector_134" opacity="0.1" d="M823.685 533.38C823.685 533.38 819.435 530.24 815.435 535.603C811.435 540.966 823.685 533.38 823.685 533.38Z" fill="black" fill-opacity="0.97"/>
<path id="Vector_135" opacity="0.1" d="M828.905 534.998C828.905 534.998 825.385 541.624 823.685 542.153C821.985 542.681 828.905 534.998 828.905 534.998Z" fill="black" fill-opacity="0.97"/>
<path id="Vector_136" opacity="0.1" d="M823.685 536.649C823.685 536.649 820.895 541.894 818.465 541.365L823.685 536.649Z" fill="black" fill-opacity="0.97"/>
<path id="Vector_137" d="M804.035 395.063C804.035 395.063 829.765 393.887 832.315 392.97C834.865 392.052 857.435 388.912 857.435 388.912C857.435 388.912 924.315 394.016 905.265 400.178C886.215 406.339 860.355 403.706 860.355 403.706C860.355 403.706 835.105 410.785 831.225 414.497C827.345 418.209 798.695 418.296 798.695 418.296L804.035 395.063Z" fill="#EFB7B9"/>
<path id="Vector_138" opacity="0.05" d="M804.035 395.063C804.035 395.063 829.765 393.887 832.315 392.97C834.865 392.052 857.435 388.912 857.435 388.912C857.435 388.912 924.315 394.016 905.265 400.178C886.215 406.339 860.355 403.706 860.355 403.706C860.355 403.706 835.105 410.785 831.225 414.497C827.345 418.209 798.695 418.296 798.695 418.296L804.035 395.063Z" fill="black" fill-opacity="0.97"/>
<path id="Vector_139" d="M712.504 331.807C712.504 331.807 688.955 340.44 700.365 362.453C711.775 384.466 726.465 394.826 726.465 394.826L764.335 423.119C764.335 423.119 780.234 432.939 787.514 428.881L799.405 427.802L801.405 394.135C801.405 394.135 791.405 402.519 780.525 390.898C769.645 379.276 756.245 371.377 755.155 365.097C754.065 358.817 726.214 326.433 712.504 331.807Z" fill="#A36468"/>
<path id="Vector_140" d="M786.905 403.059C786.905 403.059 799.165 407.775 798.685 408.034C798.205 408.293 786.905 412.879 786.905 412.879L787.755 430.824L804.385 429.842C804.385 429.842 810.455 397.167 805.235 393.887L786.905 392.97V403.059Z" fill="#1D1B29"/>
<path id="Vector_141" opacity="0.1" d="M786.905 403.059C786.905 403.059 799.165 407.775 798.685 408.034C798.205 408.293 786.905 412.879 786.905 412.879L787.755 430.824L804.385 429.842C804.385 429.842 810.455 397.167 805.235 393.887L786.905 392.97V403.059Z" fill="black" fill-opacity="0.97"/>
<path id="Vector_142" opacity="0.1" d="M762.035 306.136C760.46 308.049 759.165 310.211 758.195 312.546C758.045 312.902 757.895 313.247 757.755 313.625C748.825 313.625 742.405 306.136 736.925 299.435C735.925 298.194 733.395 300.071 732.565 298.679C732.475 298.517 732.385 298.356 732.285 298.194L732.565 297.633C735.565 291.493 737.755 286.248 737.755 286.248C737.755 286.248 738.755 286.594 740.375 287.209C747.845 290.057 768.415 298.809 762.035 306.136Z" fill="black" fill-opacity="0.97"/>
<path id="Vector_143" d="M788.035 280.076C788.032 288.636 784.898 296.85 779.314 302.93C773.73 309.01 766.147 312.466 758.215 312.546H757.925C753.652 312.549 749.428 311.568 745.534 309.67C741.641 307.772 738.167 305 735.345 301.539C734.335 300.302 733.412 298.985 732.585 297.6C730.057 293.351 728.482 288.524 727.985 283.504C727.488 278.483 728.082 273.406 729.72 268.677C731.358 263.947 733.995 259.694 737.422 256.256C740.849 252.818 744.971 250.289 749.462 248.869C753.952 247.45 758.687 247.18 763.292 248.08C767.896 248.98 772.243 251.026 775.986 254.055C779.73 257.083 782.768 261.012 784.86 265.529C786.951 270.046 788.038 275.027 788.035 280.076Z" fill="#EFB7B9"/>
<path id="Vector_144" opacity="0.1" d="M757.415 481.508C757.415 481.508 755.125 484.53 752.595 487.346C750.685 489.504 748.645 491.479 747.335 491.986C744.335 493.173 730.585 504.428 730.585 504.428C730.585 504.428 719.665 512.424 716.875 514.776C714.085 517.129 704.005 515.694 704.005 515.694C704.005 515.694 694.305 513.406 688.295 509.219C688.879 507.682 689.546 506.183 690.295 504.73L696.605 488.22L721.605 484.735L757.415 481.508Z" fill="black" fill-opacity="0.97"/>
<path id="Vector_145" d="M756.925 479.415C756.925 479.415 754.645 482.436 752.115 485.253C750.205 487.411 748.115 489.386 746.855 489.893C743.855 491.069 730.105 502.335 730.105 502.335C730.105 502.335 719.175 510.331 716.385 512.683C713.595 515.035 703.525 513.6 703.525 513.6C703.525 513.6 689.685 510.363 684.825 504.428C681.425 500.295 684.945 492.634 687.345 488.414C688.345 486.612 689.195 485.436 689.195 485.436L756.925 479.415Z" fill="#1D1B29"/>
<path id="Vector_146" d="M774.895 377.906C766.635 377.118 739.445 341.217 739.445 341.217L740.065 340.3L745.765 331.786H759.095L760.565 339.641C770.705 354.986 776.675 365.658 778.295 371.766C779.465 376.211 778.355 378.24 774.895 377.906Z" fill="#1D1B29"/>
<path id="Vector_147" opacity="0.1" d="M774.895 377.906C766.635 377.118 739.445 341.217 739.445 341.217L740.065 340.3C744.938 345.126 749.518 350.288 753.775 355.752C773.675 381.024 777.615 373.967 778.295 371.766C779.465 376.211 778.355 378.24 774.895 377.906Z" fill="black" fill-opacity="0.97"/>
<path id="Vector_148" opacity="0.1" d="M756.925 479.415C756.925 479.415 754.645 482.436 752.115 485.253C750.78 485.81 749.373 486.138 747.945 486.224C744.785 486.094 737.505 491.468 737.505 491.468C737.505 491.468 724.645 490.68 722.215 492.116C719.785 493.551 710.435 493.821 710.435 493.821C693.325 499.087 688.595 491.091 687.345 488.425C688.345 486.623 689.195 485.447 689.195 485.447L756.925 479.415Z" fill="black" fill-opacity="0.97"/>
<path id="Vector_149" d="M786.645 401.419C786.645 401.926 786.555 402.433 786.495 402.919C786.435 403.404 786.375 403.901 786.305 404.365C785.981 407.03 785.241 409.617 784.115 412.015C781.935 415.943 775.255 431.266 775.255 431.266L774.805 434.093L774.575 435.572L774.335 437.029L772.705 447.355L771.975 459.279C771.975 459.279 767.975 465.3 766.275 467.912C764.575 470.523 764.815 474.332 765.425 477.084C766.035 479.836 759.845 480.224 759.845 480.224C759.845 480.224 751.105 484.81 747.945 484.681C744.785 484.551 737.505 489.904 737.505 489.904C737.505 489.904 724.645 489.116 722.215 490.562C719.785 492.008 710.435 492.267 710.435 492.267C692.115 497.889 687.985 488.328 687.135 486.364C686.285 484.4 690.775 476.415 690.775 476.415C690.775 476.415 691.775 466.326 693.685 465.538C695.595 464.75 697.935 451.402 697.935 451.402C697.935 451.402 697.205 447.334 698.785 445.111C700.365 442.888 700.245 436.597 702.305 433.586C704.365 430.576 700.125 420.486 700.855 417.864C701.585 415.242 698.545 404.634 698.785 401.883C699.025 399.131 698.185 396.908 696.235 391.405C694.575 386.711 695.045 365.852 695.235 359.874C695.235 358.86 695.285 358.277 695.285 358.277C695.285 358.277 696.985 352.374 701.475 340.591C704.875 331.667 712.525 328.289 716.035 327.189C716.636 326.993 717.247 326.831 717.865 326.703C718.745 326.84 719.609 327.075 720.445 327.404C723.985 328.689 731.065 332.325 741.165 342.512C745.633 347.03 749.851 351.829 753.795 356.885C776.565 385.761 778.425 372.284 778.425 372.284C778.425 372.284 779.425 374.744 784.115 384.564C786.625 389.786 787.085 396.023 786.645 401.419Z" fill="#A36468"/>
<path id="Vector_150" opacity="0.1" d="M749.155 330.199L726.315 310.538C726.315 310.538 718.085 311.618 714.685 326.53L738.195 348.749L749.155 330.199Z" fill="black" fill-opacity="0.97"/>
<path id="Vector_151" d="M749.155 330.199L745.155 336.231L741.095 342.415L738.035 347.26L719.265 330.199L716.035 327.178L714.225 325.516C716.055 317.455 719.305 313.43 721.895 311.488C723.071 310.518 724.44 309.856 725.895 309.556L749.155 330.199Z" fill="#1D1B29"/>
<path id="Vector_152" d="M906.225 408.034C887.165 414.184 861.315 411.573 861.315 411.573C861.315 411.573 836.065 418.641 832.185 422.364C829.685 424.727 816.915 425.601 808.185 425.957C803.335 426.151 799.705 426.162 799.705 426.162L805.035 402.93L808.115 402.778C815.025 402.433 831.315 401.548 833.315 400.825C835.865 399.908 858.435 396.768 858.435 396.768C858.435 396.768 925.275 401.872 906.225 408.034Z" fill="#EFB7B9"/>
<path id="Vector_153" opacity="0.1" d="M786.305 404.311C785.981 406.976 785.241 409.563 784.115 411.961C781.935 415.889 775.255 431.212 775.255 431.212L774.335 437.028C771.235 435.786 768.226 434.292 765.335 432.561L727.435 404.235C727.435 404.235 712.745 393.887 701.335 371.863C689.925 349.839 713.475 341.217 713.475 341.217C727.185 335.821 754.985 368.194 756.075 374.485C757.165 380.776 770.525 388.632 781.445 400.286C782.884 401.863 784.52 403.218 786.305 404.311V404.311Z" fill="black" fill-opacity="0.97"/>
<path id="Vector_154" opacity="0.1" d="M786.645 401.419C786.555 402.444 786.445 403.426 786.305 404.365C785.981 407.03 785.241 409.617 784.115 412.015C781.935 415.943 775.255 431.266 775.255 431.266L774.805 434.093C771.527 432.817 768.35 431.258 765.305 429.432L727.435 401.095C727.435 401.095 712.745 390.747 701.335 368.723C689.925 346.699 713.475 338.066 713.475 338.066C727.185 332.67 754.985 365.043 756.075 371.334C757.165 377.625 770.525 385.481 781.445 397.146C782.97 398.843 784.723 400.283 786.645 401.419Z" fill="black" fill-opacity="0.97"/>
<path id="Vector_155" d="M802.325 402.012L800.385 435.669L788.485 436.748C788.224 436.896 787.953 437.022 787.675 437.126C780.095 440.126 765.305 430.986 765.305 430.986L727.435 402.66C727.435 402.66 712.745 392.311 701.335 370.287C689.925 348.263 713.475 339.641 713.475 339.641C727.185 334.246 754.985 366.618 756.075 372.909C757.165 379.2 770.525 387.056 781.445 398.71C783.045 400.447 784.887 401.903 786.905 403.027C789.316 404.393 792.027 405.021 794.746 404.843C797.464 404.664 800.085 403.685 802.325 402.012V402.012Z" fill="#A36468"/>
<path id="Vector_156" opacity="0.1" d="M802.325 402.012L800.385 435.669L788.485 436.748C788.224 436.896 787.953 437.022 787.675 437.126L786.905 420.767C786.905 420.767 798.195 416.181 798.685 415.922C799.175 415.663 786.905 410.947 786.905 410.947V403.124C789.324 404.476 792.04 405.088 794.758 404.892C797.477 404.696 800.094 403.7 802.325 402.012Z" fill="black" fill-opacity="0.97"/>
<path id="Vector_157" opacity="0.1" d="M808.135 425.903C803.285 426.097 799.655 426.108 799.655 426.108L805.035 402.93L808.115 402.778C810.095 406.458 809.245 417.271 808.135 425.903Z" fill="black" fill-opacity="0.97"/>
<path id="Vector_158" d="M787.875 410.915C787.875 410.915 800.135 415.63 799.655 415.889C799.175 416.148 787.875 420.734 787.875 420.734L788.725 438.68L805.355 437.698C805.355 437.698 811.425 405.023 806.205 401.742L787.875 400.825V410.915Z" fill="#1D1B29"/>
<path id="Vector_159" opacity="0.1" d="M715.175 432.399C715.175 432.399 711.045 436.586 707.645 437.698L715.175 432.399Z" fill="black" fill-opacity="0.97"/>
<path id="Vector_160" opacity="0.1" d="M705.345 444.841C705.345 444.841 715.415 444.442 716.625 442.219C717.835 439.996 705.345 444.841 705.345 444.841Z" fill="black" fill-opacity="0.97"/>
<path id="Vector_161" opacity="0.1" d="M700.365 460.423C700.975 460.423 713.105 458.589 713.595 456.884L700.365 460.423Z" fill="black" fill-opacity="0.97"/>
<path id="Vector_162" opacity="0.1" d="M696.605 470.383C700.975 470.243 708.375 465.139 708.375 465.139L696.605 470.383Z" fill="black" fill-opacity="0.97"/>
<path id="Vector_163" opacity="0.1" d="M724.885 472.994C724.885 472.994 751.225 472.994 752.435 467.761C753.645 462.527 724.885 472.994 724.885 472.994Z" fill="black" fill-opacity="0.97"/>
<path id="Vector_164" opacity="0.1" d="M744.665 399.779C745.155 399.779 765.425 399.779 767.365 396.768C769.305 393.757 744.665 399.779 744.665 399.779Z" fill="black" fill-opacity="0.97"/>
<path id="Vector_165" opacity="0.1" d="M722.345 314.013C722.509 315.083 722.596 316.166 722.605 317.25C722.605 318.455 722.504 319.658 722.305 320.844C721.903 323.095 721.273 325.292 720.425 327.394L720.215 327.922C719.915 328.678 719.595 329.412 719.265 330.145C717.779 333.415 716.025 336.536 714.025 339.469C709.46 346.009 704.182 351.933 698.305 357.112C697.285 358.04 696.255 358.957 695.215 359.863C695.215 358.849 695.265 358.266 695.265 358.266C695.265 358.266 696.965 352.364 701.455 340.58C704.855 331.656 712.505 328.279 716.015 327.178L714.205 325.516C716.035 317.455 719.285 313.43 721.875 311.488C722.035 312.287 722.225 313.128 722.345 314.013Z" fill="black" fill-opacity="0.97"/>
<path id="Vector_166" opacity="0.1" d="M783.635 263.21C783.327 263.292 783.031 263.419 782.755 263.588C780.855 264.721 780.305 267.407 778.755 269.102C776.965 271.098 774.165 271.4 771.615 271.745C769.065 272.091 766.215 272.771 764.865 275.134C763.865 276.893 763.955 279.105 763.595 281.133C763.556 281.498 763.42 281.843 763.205 282.126C762.861 282.427 762.427 282.581 761.985 282.558C756.985 282.935 753.345 281.079 748.665 279.774C746.465 279.169 743.905 279.245 742.225 280.853C740.705 282.331 740.285 284.748 740.325 286.96V287.155C740.54 289.305 740.6 291.469 740.505 293.629C740.274 295.3 739.68 296.888 738.771 298.263C737.862 299.638 736.664 300.76 735.275 301.539C734.107 302.215 732.817 302.613 731.495 302.704C730.984 302.762 730.468 302.681 729.995 302.467C730.885 300.827 731.735 299.23 732.515 297.6C730.345 293.98 728.864 289.931 728.159 285.688C727.454 281.444 727.539 277.092 728.408 272.884C729.278 268.676 730.914 264.698 733.223 261.179C735.531 257.661 738.466 254.673 741.855 252.391C745.244 250.108 749.02 248.576 752.963 247.884C756.907 247.192 760.938 247.354 764.823 248.36C768.708 249.366 772.368 251.196 775.591 253.744C778.814 256.291 781.534 259.505 783.595 263.199L783.635 263.21Z" fill="black" fill-opacity="0.97"/>
<path id="Vector_167" d="M791.875 259.066C791.509 259.95 790.932 260.713 790.205 261.278C787.925 262.875 784.655 261.116 782.275 262.541C780.365 263.674 779.825 266.361 778.275 268.055C776.495 270.051 773.695 270.353 771.135 270.699C768.575 271.044 765.745 271.724 764.385 274.087C763.385 275.846 763.485 278.047 763.115 280.087C763.08 280.453 762.944 280.799 762.725 281.079C762.38 281.378 761.946 281.531 761.505 281.511C756.505 281.889 752.865 280.022 748.185 278.727C745.995 278.123 743.435 278.198 741.755 279.806C740.075 281.414 739.815 283.712 739.845 285.925C740.052 288.133 740.116 290.354 740.035 292.572C739.688 294.951 738.614 297.137 736.983 298.782C735.352 300.427 733.258 301.435 731.035 301.647C730.71 301.7 730.38 301.682 730.062 301.595C729.744 301.508 729.446 301.353 729.185 301.14C728.896 300.803 728.687 300.395 728.575 299.953C725.245 289.852 725.275 278.641 721.235 268.843C720.583 267.446 720.018 266.004 719.545 264.526C719.465 264.224 719.385 263.911 719.325 263.598C719.205 262.975 719.125 262.345 719.085 261.71C718.671 261.774 718.279 261.948 717.945 262.217C717.826 262.326 717.718 262.449 717.625 262.584C717.052 263.616 716.761 264.802 716.785 266.005C716.038 279.495 717.252 293.029 720.385 306.114C721.34 309.381 721.921 312.762 722.115 316.182C722.003 319.88 721.186 323.513 719.715 326.854C713.445 342.458 700.845 353.885 688.315 364.212C689.602 362.723 690.596 360.967 691.235 359.051C691.875 357.135 692.147 355.098 692.035 353.065C691.819 353.841 691.409 354.538 690.849 355.079C690.29 355.619 689.603 355.983 688.865 356.13C687.383 356.401 685.868 356.376 684.395 356.054C686.315 355.374 687.065 352.936 687.545 350.821C688.525 346.504 689.435 342.148 690.275 337.753C691.169 333.558 691.758 329.293 692.035 324.998C692.185 321.351 691.925 317.693 691.785 314.035C691.488 304.004 691.822 293.964 692.785 283.982C693.525 275.35 694.865 266.015 700.735 260.124C703.268 257.813 706.097 255.909 709.135 254.469C709.135 253.39 716.465 251.232 717.435 251.081C717.837 250.996 718.245 250.946 718.655 250.93C719.178 250.848 719.713 250.947 720.182 251.212C720.651 251.478 721.03 251.896 721.265 252.408C721.625 251.707 722.025 251.016 722.445 250.358C723.022 249.452 723.657 248.59 724.345 247.779C728.155 243.247 733.095 240.053 737.505 236.211C739.123 234.644 740.878 233.25 742.745 232.046C745.185 230.722 747.864 229.985 750.595 229.888C755.109 229.613 759.626 230.378 763.845 232.132C769.925 234.657 775.235 239.189 781.525 241.024C783.077 241.387 784.61 241.844 786.115 242.394C787.557 243.01 788.865 243.946 789.953 245.14C791.04 246.334 791.885 247.76 792.431 249.327C792.977 250.895 793.213 252.568 793.125 254.24C793.036 255.911 792.623 257.544 791.915 259.034L791.875 259.066Z" fill="#444053"/>
<g id="Group_2" opacity="0.1">
<path id="Vector_168" opacity="0.1" d="M690.605 355.72C691.334 353.694 691.645 351.521 691.515 349.353C691.296 350.129 690.884 350.826 690.323 351.366C689.762 351.907 689.074 352.271 688.335 352.418C687.954 352.516 687.566 352.578 687.175 352.601C686.675 354.328 685.885 355.989 684.355 356.529C685.827 356.854 687.342 356.883 688.825 356.615C689.467 356.447 690.072 356.142 690.605 355.72Z" fill="black" fill-opacity="0.97"/>
<path id="Vector_169" opacity="0.1" d="M792.595 250.466C792.52 252.172 792.111 253.842 791.395 255.365C791.016 256.228 790.437 256.971 789.715 257.523C787.445 259.12 784.165 257.372 781.785 258.786C779.885 259.919 779.335 262.616 777.785 264.3C775.995 266.296 773.195 266.609 770.645 266.943C768.095 267.278 765.245 268.023 763.895 270.332C762.895 272.091 762.985 274.303 762.625 276.331C762.617 276.544 762.568 276.753 762.48 276.943C762.393 277.134 762.269 277.302 762.117 277.438C761.965 277.573 761.788 277.673 761.598 277.729C761.408 277.786 761.209 277.799 761.015 277.767C756.015 278.144 752.375 276.278 747.695 274.972C745.495 274.368 742.935 274.443 741.255 276.051C739.735 277.54 739.315 279.946 739.355 282.169C739.564 284.374 739.624 286.592 739.535 288.806C739.2 291.192 738.13 293.387 736.497 295.035C734.864 296.684 732.763 297.69 730.535 297.892C730.21 297.942 729.88 297.924 729.563 297.837C729.245 297.75 728.947 297.596 728.685 297.384C728.396 297.043 728.187 296.633 728.075 296.187C724.745 286.086 724.765 274.875 720.725 265.087C720.082 263.688 719.521 262.246 719.045 260.771C718.79 259.855 718.632 258.91 718.575 257.955C718 258.028 717.476 258.342 717.115 258.829C716.552 259.866 716.262 261.048 716.275 262.249C715.809 270.897 716.144 279.572 717.275 288.147C716.552 280.931 716.388 273.661 716.785 266.415C716.761 265.212 717.052 264.026 717.625 262.994C717.8 262.748 718.019 262.544 718.271 262.394C718.522 262.243 718.799 262.15 719.085 262.12C719.14 263.074 719.294 264.019 719.545 264.936C720.023 266.412 720.587 267.854 721.235 269.253C725.235 279.051 725.235 290.252 728.575 300.352C728.692 300.798 728.904 301.208 729.195 301.55C729.447 301.779 729.741 301.95 730.058 302.052C730.374 302.154 730.707 302.185 731.035 302.143C733.258 301.931 735.352 300.923 736.983 299.278C738.614 297.634 739.688 295.448 740.035 293.068C740.116 290.85 740.052 288.629 739.845 286.421C739.845 284.198 740.235 281.792 741.755 280.303C743.435 278.662 745.995 278.598 748.185 279.223C752.865 280.518 756.485 282.385 761.505 282.007C761.946 282.027 762.38 281.874 762.725 281.576C762.944 281.291 763.08 280.941 763.115 280.572C763.485 278.544 763.375 276.332 764.385 274.583C765.745 272.22 768.585 271.53 771.135 271.184C773.685 270.839 776.495 270.548 778.285 268.551C779.795 266.857 780.335 264.17 782.285 263.026C784.655 261.613 787.935 263.372 790.215 261.775C790.942 261.209 791.519 260.446 791.885 259.563C793.2 256.743 793.454 253.483 792.595 250.466V250.466Z" fill="black" fill-opacity="0.97"/>
<path id="Vector_170" opacity="0.1" d="M721.635 312.502C721.524 316.199 720.711 319.831 719.245 323.174C713.635 337.127 702.955 347.745 691.805 357.209C691.333 360.032 690.126 362.652 688.325 364.762C700.845 354.446 713.465 343.019 719.725 327.415C721.196 324.074 722.013 320.441 722.125 316.743C722.1 315.164 721.929 313.591 721.615 312.049C721.625 312.157 721.635 312.33 721.635 312.502Z" fill="black" fill-opacity="0.97"/>
</g>
<path id="Vector_171" opacity="0.1" d="M722.885 250.347C721.985 254.815 720.745 260.62 719.815 263.609C719.7 262.985 719.62 262.355 719.575 261.721C719.164 261.785 718.776 261.959 718.445 262.228C718.445 259.088 718.795 254.415 719.095 250.919C719.62 250.836 720.156 250.935 720.627 251.2C721.097 251.466 721.478 251.885 721.715 252.397C722.035 251.707 722.465 251.016 722.885 250.347Z" fill="black" fill-opacity="0.97"/>
<path id="Vector_172" d="M722.405 250.347C721.505 254.815 720.265 260.62 719.335 263.609C719.215 262.986 719.135 262.355 719.095 261.721C718.681 261.784 718.289 261.959 717.955 262.228C717.955 259.088 718.305 254.415 718.615 250.919C719.138 250.837 719.673 250.936 720.142 251.201C720.611 251.467 720.99 251.885 721.225 252.397C721.585 251.707 722.035 251.016 722.405 250.347Z" fill="#1D1B29"/>
<g id="Group_3" opacity="0.7">
<path id="Vector_173" opacity="0.7" d="M926.035 8.16867H1091.7V182.052H926.035V8.16867Z" fill="#2E001E"/>
<path id="Vector_174" opacity="0.7" d="M918.545 0V190.178H1099.27V0H918.545ZM926.075 8.13628H1091.74V182.052H926.035L926.075 8.13628Z" fill="#FF2BC2"/>
<path id="Vector_175" opacity="0.7" d="M1049.79 79.9169C1048.41 79.3039 1046.92 79.0241 1045.42 79.0968C1035.94 79.0968 1029.61 86.9849 1029.61 100.063C1029.61 115.019 1036.09 121.03 1044.52 121.03C1046.29 121.087 1048.06 120.784 1049.72 120.134V79.9169H1049.79ZM1016.03 100.722C1016.03 81.7837 1027.32 66.9894 1045.85 66.9894C1047.16 66.959 1048.47 67.0166 1049.76 67.1621V46.0337C1049.76 45.8162 1049.84 45.6076 1049.99 45.4538C1050.13 45.3 1050.32 45.2135 1050.52 45.2135H1062.64C1063.24 45.2135 1063.39 45.4617 1063.39 45.8718V120.134C1063.35 122.795 1063.48 125.456 1063.77 128.098C1063.77 128.67 1063.77 128.756 1063.32 128.994C1057.3 132.091 1050.72 133.701 1044.04 133.709C1027.7 133.709 1016.04 122.821 1016.04 100.722H1016.03ZM990.355 87.5568L1011.46 131.648C1011.84 132.296 1011.61 132.943 1011.01 132.943H997.915C997.576 132.989 997.233 132.906 996.945 132.709C996.657 132.513 996.441 132.214 996.335 131.864C991.515 121.138 986.595 110.005 981.575 98.4663H981.425C976.905 109.354 971.935 121.224 967.115 131.918C966.994 132.194 966.8 132.426 966.559 132.585C966.317 132.744 966.038 132.824 965.755 132.813H953.255C952.505 132.813 952.435 132.155 952.805 131.67L973.435 88.8517L953.485 46.4005C953.392 46.2951 953.33 46.1618 953.309 46.0182C953.287 45.8746 953.306 45.7273 953.364 45.5956C953.421 45.4639 953.514 45.3539 953.63 45.2799C953.746 45.206 953.88 45.1716 954.015 45.1812H966.965C967.715 45.1812 968.095 45.343 968.315 46.0768C973.065 56.8676 977.885 67.529 982.405 78.4493H982.555C986.915 67.7232 991.735 56.8677 996.335 46.2711C996.705 45.6128 996.935 45.192 997.685 45.192H1009.81C1010.41 45.192 1010.63 45.6776 1010.26 46.4113L990.385 87.6107L990.355 87.5568Z" fill="#FF2BC2"/>
</g>
</g>
<g id="diamond" filter="url(#filter0_d)">
<g id="Group_4" opacity="0.7">
<path id="a" opacity="0.7" d="M269.54 119.41L326.16 230.22L231 119.41H269.54Z" fill="#EA6C00"/>
<path id="b" opacity="0.7" d="M382.79 119.41L326.17 230.22L421.33 119.41H382.79Z" fill="#EA6C00"/>
<path id="c" opacity="0.7" d="M269.54 119.41H382.77L326.16 230.22L269.54 119.41Z" fill="#FDAD00"/>
<path id="d" opacity="0.7" d="M326.16 58L272.52 63.67L269.52 119.41L326.16 58Z" fill="#FDD231"/>
<path id="e" opacity="0.7" d="M326.16 58L379.79 63.67L382.79 119.41L326.16 58Z" fill="#FDD231"/>
<path id="f" opacity="0.7" d="M421.33 119.41L379.81 63.67L382.81 119.41H421.33Z" fill="#FDAD00"/>
<path id="g" opacity="0.7" d="M231 119.41L272.52 63.67L269.52 119.41H231Z" fill="#FDAD00"/>
<path id="h" opacity="0.7" d="M326.16 58L269.54 119.41H382.77L326.16 58Z" fill="#FEEEB7"/>
</g>
</g>
</g>
<defs>
<filter id="filter0_d" x="231" y="58" width="210.33" height="192.22" filterUnits="userSpaceOnUse" color-interpolation-filters="sRGB">
<feFlood flood-opacity="0" result="BackgroundImageFix"/>
<feColorMatrix in="SourceAlpha" type="matrix" values="0 0 0 0 0 0 0 0 0 0 0 0 0 0 0 0 0 0 127 0"/>
<feOffset dx="20" dy="20"/>
<feColorMatrix type="matrix" values="0 0 0 0 0 0 0 0 0 0 0 0 0 0 0 0 0 0 0.25 0"/>
<feBlend mode="normal" in2="BackgroundImageFix" result="effect1_dropShadow"/>
<feBlend mode="normal" in="SourceGraphic" in2="effect1_dropShadow" result="shape"/>
</filter>
<linearGradient id="paint0_linear" x1="50853.4" y1="162665" x2="124442" y2="162665" gradientUnits="userSpaceOnUse">
<stop stop-color="#808080" stop-opacity="0.25"/>
<stop offset="0.54" stop-color="#808080" stop-opacity="0.12"/>
<stop offset="1" stop-color="#808080" stop-opacity="0.1"/>
</linearGradient>
<linearGradient id="paint1_linear" x1="-227426" y1="103485" x2="-227426" y2="56323.2" gradientUnits="userSpaceOnUse">
<stop stop-color="#808080" stop-opacity="0.25"/>
<stop offset="0.54" stop-color="#808080" stop-opacity="0.12"/>
<stop offset="1" stop-color="#808080" stop-opacity="0.1"/>
</linearGradient>
<clipPath id="clip0">
<rect width="1164.07" height="555.93" fill="white"/>
</clipPath>
</defs>
</svg>
