<svg class="webPage" viewBox="0 0 1099 633" fill="none" xmlns="http://www.w3.org/2000/svg">
<g id="web_development" clip-path="url(#clip0)">
<g id="line1">
<path id="Vector" d="M464.999 175.641H234.529V184.934H464.999V175.641Z" fill="#3F3D56"/>
<path id="Vector_2" d="M464.999 196.086H234.529V205.379H464.999V196.086Z" fill="#3F3D56"/>
<path id="Vector_3" d="M312.591 216.531H234.529V225.824H312.591V216.531Z" fill="#3F3D56"/>
</g>
<g id="circl1">
<path id="Vector_4" opacity="0.3" d="M367 366C396.823 366 421 341.823 421 312C421 282.177 396.823 258 367 258C337.177 258 313 282.177 313 312C313 341.823 337.177 366 367 366Z" fill="#E7D534"/>
<path id="Vector_5" opacity="0.3" d="M367 348C386.882 348 403 331.882 403 312C403 292.118 386.882 276 367 276C347.118 276 331 292.118 331 312C331 331.882 347.118 348 367 348Z" fill="#E7D534"/>
<path id="Vector_6" d="M367 337C380.807 337 392 325.807 392 312C392 298.193 380.807 287 367 287C353.193 287 342 298.193 342 312C342 325.807 353.193 337 367 337Z" fill="#E7D534"/>
</g>
<g id="circl2" filter="url(#filter0_d)">
<path id="Vector_7" opacity="0.3" d="M808 205C837.823 205 862 180.823 862 151C862 121.177 837.823 97 808 97C778.177 97 754 121.177 754 151C754 180.823 778.177 205 808 205Z" fill="#E7D534"/>
<path id="Vector_8" opacity="0.3" d="M808 187C827.882 187 844 170.882 844 151C844 131.118 827.882 115 808 115C788.118 115 772 131.118 772 151C772 170.882 788.118 187 808 187Z" fill="#E7D534"/>
<path id="Vector_9" d="M808.375 176.185C822.182 176.185 833.375 164.992 833.375 151.185C833.375 137.378 822.182 126.185 808.375 126.185C794.568 126.185 783.375 137.378 783.375 151.185C783.375 164.992 794.568 176.185 808.375 176.185Z" fill="#E7D534"/>
</g>
<g id="full">
<path id="Vector_10" d="M175.552 415.277L174.967 415.779V592.903H1000.28V281.779L990.449 282.525L175.552 415.277Z" fill="#3F3D56"/>
<path id="Vector_11" d="M587.626 585.242C592.633 585.242 596.692 581.183 596.692 576.176C596.692 571.169 592.633 567.11 587.626 567.11C582.619 567.11 578.56 571.169 578.56 576.176C578.56 581.183 582.619 585.242 587.626 585.242Z" fill="#F2F2F2"/>
<path id="Vector_12" d="M89.9221 109.361L112.148 110.223L113.256 81.6473L91.0303 80.7854L89.9221 109.361Z" fill="#6C63FF"/>
<path id="Vector_13" d="M191.29 180.864C191.29 180.864 222.069 166.158 221.576 178.859C221.084 191.559 190.551 199.915 190.551 199.915L191.29 180.864Z" fill="#FFB9B9"/>
<path id="Vector_14" d="M76.9644 54.0061C76.9644 54.0061 60.0424 80.3787 53.446 86.4827C46.8496 92.5866 65.4076 106.026 65.4076 106.026L98.6229 110.494C98.6229 110.494 98.205 80.2686 99.9157 77.1551C101.626 74.0416 76.9644 54.0061 76.9644 54.0061Z" fill="#FFB9B9"/>
<path id="Vector_15" opacity="0.1" d="M18.3708 170.979C24.771 182.643 40.8708 197.974 49.0786 215.098C51.2224 207.374 53.8377 199.383 53.8377 199.383C53.8377 199.383 63.8685 145.714 34.1977 131.844C29.2814 131.369 24.3645 132.743 20.4066 135.698C16.1798 149.986 14.1832 163.344 18.3708 170.979Z" fill="black"/>
<path id="Vector_16" d="M136.157 167.597L161.311 174.932L196.237 176.286L199.83 206.634L142.432 210.768C142.432 210.768 128.096 170.464 136.157 167.597Z" fill="#575A89"/>
<path id="Vector_17" d="M95.139 269.636C95.139 269.636 128.791 275.219 121.11 285.346C113.429 295.473 83.618 284.826 83.618 284.826L95.139 269.636Z" fill="#FFB9B9"/>
<path id="Vector_18" opacity="0.1" d="M53.9565 236.91C53.1959 251.603 47.7831 268.596 45.8411 280.954C56.5613 291.1 66.7555 300.05 70.5973 300.199C78.5351 300.506 91.297 299.411 95.998 301.184C100.699 302.956 103.456 272.854 103.456 272.854C103.456 272.854 100.651 263.206 88.1349 257.95C79.6871 254.395 63.494 244.752 53.9565 236.91Z" fill="black"/>
<path id="Vector_19" d="M100.654 93.0568C119.958 93.0568 135.607 77.4082 135.607 58.1046C135.607 38.8011 119.958 23.1524 100.654 23.1524C81.3508 23.1524 65.7022 38.8011 65.7022 58.1046C65.7022 77.4082 81.3508 93.0568 100.654 93.0568Z" fill="#FFB9B9"/>
</g>
<g id="fullPic">
<path id="Vector_20" d="M549.375 632.37C852.786 632.37 1098.75 618.224 1098.75 600.774C1098.75 583.323 852.786 569.177 549.375 569.177C245.964 569.177 0 583.323 0 600.774C0 618.224 245.964 632.37 549.375 632.37Z" fill="#F2F2F2"/>
<path id="Vector_21" d="M1000.29 0H174.967V26.257H1000.29V0Z" fill="#F2F2F2"/>
<path id="Vector_22" d="M197.053 19.5369C200.806 19.5369 203.848 16.4945 203.848 12.7415C203.848 8.98845 200.806 5.94601 197.053 5.94601C193.3 5.94601 190.257 8.98845 190.257 12.7415C190.257 16.4945 193.3 19.5369 197.053 19.5369Z" fill="#6C63FF"/>
<path id="Vector_23" d="M219.138 19.5369C222.891 19.5369 225.933 16.4945 225.933 12.7415C225.933 8.98845 222.891 5.94601 219.138 5.94601C215.385 5.94601 212.342 8.98845 212.342 12.7415C212.342 16.4945 215.385 19.5369 219.138 19.5369Z" fill="#6C63FF"/>
<path id="Vector_24" d="M241.223 19.5369C244.976 19.5369 248.019 16.4945 248.019 12.7415C248.019 8.98845 244.976 5.94601 241.223 5.94601C237.47 5.94601 234.428 8.98845 234.428 12.7415C234.428 16.4945 237.47 19.5369 241.223 19.5369Z" fill="#6C63FF"/>
<path id="Vector_25" d="M561.336 584.335C566.342 584.335 570.401 580.276 570.401 575.269C570.401 570.262 566.342 566.203 561.336 566.203C556.329 566.203 552.27 570.262 552.27 575.269C552.27 580.276 556.329 584.335 561.336 584.335Z" fill="#F2F2F2"/>
<path id="Vector_26" d="M613.917 586.148C618.924 586.148 622.983 582.089 622.983 577.082C622.983 572.075 618.924 568.017 613.917 568.017C608.91 568.017 604.851 572.075 604.851 577.082C604.851 582.089 608.91 586.148 613.917 586.148Z" fill="#F2F2F2"/>
<path id="Vector_27" d="M587.709 583.428C591.715 583.428 594.962 580.181 594.962 576.176C594.962 572.17 591.715 568.923 587.709 568.923C583.704 568.923 580.457 572.17 580.457 576.176C580.457 580.181 583.704 583.428 587.709 583.428Z" fill="#3F3D56"/>
<path id="Vector_28" d="M174.403 288.325C174.403 288.325 188.924 323.866 194.29 349.513C199.655 375.16 207.826 410.456 197.315 435.487C186.805 460.518 156.924 534.086 156.616 542.024C156.308 549.962 159.175 558.022 152.825 557.776C146.475 557.53 111.918 546.65 110.515 541.826C109.113 537.002 122.305 524.794 122.305 524.794L154.883 422.712L120.893 356.207L96.3767 455.422L91.5749 579.25C91.5749 579.25 68.008 571.976 64.5866 578.203C64.5866 578.203 54.0279 563.485 52.6866 557.073C51.3453 550.661 57.6731 428.482 57.6731 428.482C57.6731 428.482 36.0408 289.319 53.5038 289.996C70.9667 290.673 139.367 248.808 174.403 288.325Z" fill="#2F2E41"/>
<path id="Vector_29" d="M153.071 551.426C153.071 551.426 169.18 587.029 170.706 588.678C172.232 590.327 182.729 606.634 174.791 606.326C166.854 606.018 148.111 597.342 134.315 584.087C120.52 570.833 102.331 547.868 103.98 546.342C105.63 544.816 116.927 540.485 116.927 540.485L153.071 551.426Z" fill="#2F2E41"/>
<path id="Vector_30" d="M88.7076 571.189C88.7076 571.189 89.6795 587.126 92.6084 593.599C95.5372 600.073 95.1678 609.598 87.2301 609.29C79.2924 608.982 58.7775 605.007 58.7775 605.007C58.7775 605.007 57.5593 595.42 59.2084 593.894C60.8575 592.368 67.8849 575.151 64.8945 570.266C61.9041 565.38 88.7076 571.189 88.7076 571.189Z" fill="#2F2E41"/>
<path id="Vector_31" d="M105.835 88.5142C105.835 88.5142 98.9923 100.968 92.6421 100.722C86.2919 100.476 53.446 86.4827 52.0431 81.6585C50.6402 76.8343 41.1635 116.215 41.1635 116.215L121.535 257.656L141.14 244.107L131.64 161.062L123.839 116.241L105.835 88.5142Z" fill="#6C63FF"/>
<path id="Vector_32" d="M49.0786 215.098C52.2846 221.804 54.287 228.798 54.0093 235.958C53.997 236.276 53.9847 236.593 53.9565 236.91C53.196 251.603 47.7831 268.596 45.8412 280.954C44.4321 289.819 44.8331 296.29 50.0209 297.811C62.5981 301.478 48.1871 304.099 96.8469 320.296C145.507 336.492 153.998 322.512 154.122 319.337C154.245 316.162 147.23 292.041 148.88 290.515C150.529 288.989 171.954 310.489 178.427 307.56C184.901 304.631 179.166 288.509 179.166 288.509C179.166 288.509 164.583 254.555 164.891 246.618C165.199 238.68 142.802 201.243 142.802 201.243L127.568 102.076C127.568 102.076 121.71 89.1298 113.834 87.2345C105.958 85.3391 99.4232 89.8555 99.4232 89.8555L112.603 118.985L126.508 170.402L124.182 189.391C124.182 189.391 108.012 155.376 97.3917 142.244C86.7714 129.113 64.1279 98.0264 64.1279 98.0264C64.1279 98.0264 58.8414 80.189 62.8322 74.8585C66.8236 69.5122 46.1855 68.7119 37.3859 90.6297C32.7221 102.246 25.1501 119.569 20.4067 135.698C16.1799 149.986 14.1833 163.344 18.3708 170.979C24.771 182.643 40.8708 197.974 49.0786 215.098Z" fill="#575A89"/>
<path id="Vector_33" d="M34.567 122.319C34.567 122.319 7.7019 118.097 9.15325 162.672C10.6046 207.246 6.3214 235.699 17.1264 244.067C27.9314 252.436 63.029 290.365 70.9667 290.673C78.9044 290.981 91.6664 289.886 96.3674 291.658C101.068 293.431 103.826 263.329 103.826 263.329C103.826 263.329 101.02 253.68 88.5043 248.425C75.9887 243.17 46.5025 224.537 46.7487 218.187C46.995 211.837 54.207 189.858 54.207 189.858C54.207 189.858 64.2379 136.189 34.567 122.319Z" fill="#575A89"/>
<path id="Vector_34" d="M124.189 8.00793C125.032 8.73428 126.041 9.24091 127.127 9.4827C127.673 9.57991 128.234 9.45745 128.69 9.14205C129.145 8.82665 129.457 8.34392 129.558 7.79925C130.357 9.45766 131.26 11.2252 132.892 12.0761C134.525 12.9271 137.05 12.2136 137.285 10.3875C137.523 11.774 138.137 13.0687 139.059 14.1314C140.072 15.0973 141.909 15.341 142.793 14.2562C142.078 18.1637 142.519 22.1821 142.295 26.1481C142.07 30.1141 141.013 34.3186 138.016 36.9265C133.646 40.7298 127.075 39.7911 121.327 39.0706C120.458 38.8882 119.556 38.9375 118.712 39.2136C116.559 40.1306 116.657 43.1268 116.628 45.4661C116.452 49.5707 114.828 53.4802 112.043 56.5005C109.258 59.5208 105.493 61.4564 101.416 61.9636C99.1342 62.3157 96.8061 61.7476 94.9433 60.3839C93.3112 59.0006 92.4776 56.7459 90.6075 55.7067C87.5654 54.0163 83.8759 56.4816 81.6518 59.1583C79.4276 61.835 77.2356 65.1276 73.7901 65.6176C69.2332 66.2656 65.7624 61.6216 64.0596 57.3454C61.7103 51.352 60.5848 44.9489 60.7493 38.5136C60.9139 32.0783 62.3653 25.7411 65.018 19.8756C74.5329 -0.865423 107.036 -4.14604 124.189 8.00793Z" fill="#2F2E41"/>
</g>
<g id="circl3">
<path id="Vector_35" opacity="0.3" d="M837 562C866.823 562 891 537.823 891 508C891 478.177 866.823 454 837 454C807.177 454 783 478.177 783 508C783 537.823 807.177 562 837 562Z" fill="#E7D534"/>
<path id="Vector_36" opacity="0.3" d="M837 544C856.882 544 873 527.882 873 508C873 488.118 856.882 472 837 472C817.118 472 801 488.118 801 508C801 527.882 817.118 544 837 544Z" fill="#E7D534"/>
<path id="Vector_37" d="M837 533C850.807 533 862 521.807 862 508C862 494.193 850.807 483 837 483C823.193 483 812 494.193 812 508C812 521.807 823.193 533 837 533Z" fill="#E7D534"/>
</g>
<g id="line2">
<path id="Vector_38" d="M929.47 375H699V384.293H929.47V375Z" fill="white"/>
<path id="Vector_39" d="M929.47 395.445H699V404.738H929.47V395.445Z" fill="white"/>
<path id="Vector_40" d="M777.063 415.89H699V425.183H777.063V415.89Z" fill="white"/>
</g>
</g>
<defs>
<filter id="filter0_d" x="729" y="72" width="178" height="178" filterUnits="userSpaceOnUse" color-interpolation-filters="sRGB">
<feFlood flood-opacity="0" result="BackgroundImageFix"/>
<feColorMatrix in="SourceAlpha" type="matrix" values="0 0 0 0 0 0 0 0 0 0 0 0 0 0 0 0 0 0 127 0"/>
<feOffset dx="10" dy="10"/>
<feGaussianBlur stdDeviation="17.5"/>
<feColorMatrix type="matrix" values="0 0 0 0 0.904167 0 0 0 0 0.834094 0 0 0 0 0.203438 0 0 0 0.25 0"/>
<feBlend mode="normal" in2="BackgroundImageFix" result="effect1_dropShadow"/>
<feBlend mode="normal" in="SourceGraphic" in2="effect1_dropShadow" result="shape"/>
</filter>
<clipPath id="clip0">
<rect width="1098.75" height="632.37" fill="white"/>
</clipPath>
</defs>
</svg>
